solid OpenSCAD_Model
  facet normal 0 0 -1
    outer loop
      vertex -36.3 -52.3 0
      vertex 36.3 52.3 0
      vertex 36.3 -52.3 0
    endloop
  endfacet
  facet normal -0 0 -1
    outer loop
      vertex 36.3 52.3 0
      vertex -36.3 -52.3 0
      vertex -36.3 52.3 0
    endloop
  endfacet
  facet normal -1 0 0
    outer loop
      vertex -36.3 -52.3 0
      vertex -36.3 52.3 18
      vertex -36.3 52.3 0
    endloop
  endfacet
  facet normal -1 -0 0
    outer loop
      vertex -36.3 52.3 18
      vertex -36.3 -52.3 0
      vertex -36.3 -52.3 18
    endloop
  endfacet
  facet normal 0 0 1
    outer loop
      vertex 27 52.3 18
      vertex -34.3 50.3 18
      vertex 27 50.3 18
    endloop
  endfacet
  facet normal 0 0 1
    outer loop
      vertex -34.3 50.3 18
      vertex -36.3 52.3 18
      vertex -34.3 -50.3 18
    endloop
  endfacet
  facet normal -0 0 1
    outer loop
      vertex -36.3 52.3 18
      vertex -34.3 50.3 18
      vertex 27 52.3 18
    endloop
  endfacet
  facet normal 0 0 1
    outer loop
      vertex 36.3 52.3 18
      vertex 34.3 50.3 18
      vertex 36.3 -52.3 18
    endloop
  endfacet
  facet normal -0 0 1
    outer loop
      vertex 33 52.3 18
      vertex 34.3 50.3 18
      vertex 36.3 52.3 18
    endloop
  endfacet
  facet normal 0 0 1
    outer loop
      vertex 34.3 50.3 18
      vertex 33 52.3 18
      vertex 33 50.3 18
    endloop
  endfacet
  facet normal -0 0 1
    outer loop
      vertex 34.3 -50.3 18
      vertex 36.3 -52.3 18
      vertex 34.3 50.3 18
    endloop
  endfacet
  facet normal -0 0 1
    outer loop
      vertex -34.3 -50.3 18
      vertex 36.3 -52.3 18
      vertex 34.3 -50.3 18
    endloop
  endfacet
  facet normal 0 0 1
    outer loop
      vertex -34.3 -50.3 18
      vertex -36.3 -52.3 18
      vertex 36.3 -52.3 18
    endloop
  endfacet
  facet normal 0 0 1
    outer loop
      vertex -36.3 -52.3 18
      vertex -34.3 -50.3 18
      vertex -36.3 52.3 18
    endloop
  endfacet
  facet normal 0 1 0
    outer loop
      vertex 36.3 52.3 18
      vertex 33 52.3 10
      vertex 33 52.3 18
    endloop
  endfacet
  facet normal 0 1 0
    outer loop
      vertex 33 52.3 10
      vertex 36.3 52.3 0
      vertex 27 52.3 10
    endloop
  endfacet
  facet normal 0 1 -0
    outer loop
      vertex 36.3 52.3 0
      vertex 33 52.3 10
      vertex 36.3 52.3 18
    endloop
  endfacet
  facet normal 0 1 -0
    outer loop
      vertex 27 52.3 10
      vertex -36.3 52.3 18
      vertex 27 52.3 18
    endloop
  endfacet
  facet normal 0 1 0
    outer loop
      vertex -36.3 52.3 0
      vertex 27 52.3 10
      vertex 36.3 52.3 0
    endloop
  endfacet
  facet normal 0 1 0
    outer loop
      vertex 27 52.3 10
      vertex -36.3 52.3 0
      vertex -36.3 52.3 18
    endloop
  endfacet
  facet normal 1 -0 0
    outer loop
      vertex 36.3 -52.3 18
      vertex 36.3 52.3 0
      vertex 36.3 52.3 18
    endloop
  endfacet
  facet normal 1 0 0
    outer loop
      vertex 36.3 52.3 0
      vertex 36.3 -52.3 18
      vertex 36.3 -52.3 0
    endloop
  endfacet
  facet normal 0 -1 0
    outer loop
      vertex -36.3 -52.3 0
      vertex 36.3 -52.3 18
      vertex -36.3 -52.3 18
    endloop
  endfacet
  facet normal 0 -1 -0
    outer loop
      vertex 36.3 -52.3 18
      vertex -36.3 -52.3 0
      vertex 36.3 -52.3 0
    endloop
  endfacet
  facet normal -0 0 1
    outer loop
      vertex -34.3 50.3 3
      vertex 34.3 -50.3 3
      vertex 34.3 50.3 3
    endloop
  endfacet
  facet normal 0 0 1
    outer loop
      vertex 34.3 -50.3 3
      vertex -34.3 50.3 3
      vertex -34.3 -50.3 3
    endloop
  endfacet
  facet normal 1 -0 0
    outer loop
      vertex -34.3 -50.3 18
      vertex -34.3 50.3 3
      vertex -34.3 50.3 18
    endloop
  endfacet
  facet normal 1 0 0
    outer loop
      vertex -34.3 50.3 3
      vertex -34.3 -50.3 18
      vertex -34.3 -50.3 3
    endloop
  endfacet
  facet normal 0 -1 0
    outer loop
      vertex -34.3 50.3 18
      vertex 27 50.3 10
      vertex 27 50.3 18
    endloop
  endfacet
  facet normal 0 -1 0
    outer loop
      vertex 34.3 50.3 3
      vertex 27 50.3 10
      vertex -34.3 50.3 3
    endloop
  endfacet
  facet normal 0 -1 0
    outer loop
      vertex -34.3 50.3 3
      vertex 27 50.3 10
      vertex -34.3 50.3 18
    endloop
  endfacet
  facet normal 0 -1 0
    outer loop
      vertex 33 50.3 10
      vertex 34.3 50.3 18
      vertex 33 50.3 18
    endloop
  endfacet
  facet normal 0 -1 0
    outer loop
      vertex 33 50.3 10
      vertex 34.3 50.3 3
      vertex 34.3 50.3 18
    endloop
  endfacet
  facet normal 0 -1 0
    outer loop
      vertex 27 50.3 10
      vertex 34.3 50.3 3
      vertex 33 50.3 10
    endloop
  endfacet
  facet normal -1 0 0
    outer loop
      vertex 34.3 -50.3 3
      vertex 34.3 50.3 18
      vertex 34.3 50.3 3
    endloop
  endfacet
  facet normal -1 -0 0
    outer loop
      vertex 34.3 50.3 18
      vertex 34.3 -50.3 3
      vertex 34.3 -50.3 18
    endloop
  endfacet
  facet normal 0 1 -0
    outer loop
      vertex 34.3 -50.3 3
      vertex -34.3 -50.3 18
      vertex 34.3 -50.3 18
    endloop
  endfacet
  facet normal 0 1 0
    outer loop
      vertex -34.3 -50.3 18
      vertex 34.3 -50.3 3
      vertex -34.3 -50.3 3
    endloop
  endfacet
  facet normal -0 0 1
    outer loop
      vertex 27 52.3 10
      vertex 33 50.3 10
      vertex 33 52.3 10
    endloop
  endfacet
  facet normal 0 0 1
    outer loop
      vertex 33 50.3 10
      vertex 27 52.3 10
      vertex 27 50.3 10
    endloop
  endfacet
  facet normal 1 -0 0
    outer loop
      vertex 27 50.3 18
      vertex 27 52.3 10
      vertex 27 52.3 18
    endloop
  endfacet
  facet normal 1 0 0
    outer loop
      vertex 27 52.3 10
      vertex 27 50.3 18
      vertex 27 50.3 10
    endloop
  endfacet
  facet normal -1 0 0
    outer loop
      vertex 33 50.3 10
      vertex 33 52.3 18
      vertex 33 52.3 10
    endloop
  endfacet
  facet normal -1 -0 0
    outer loop
      vertex 33 52.3 18
      vertex 33 50.3 10
      vertex 33 50.3 18
    endloop
  endfacet
endsolid OpenSCAD_Model
