solid OpenSCAD_Model
  facet normal 0 0 -1
    outer loop
      vertex -34 -50 0
      vertex 34 50 0
      vertex 34 -50 0
    endloop
  endfacet
  facet normal -0 0 -1
    outer loop
      vertex 34 50 0
      vertex -34 -50 0
      vertex -34 50 0
    endloop
  endfacet
  facet normal -1 0 0
    outer loop
      vertex -34 -50 0
      vertex -34 50 20
      vertex -34 50 0
    endloop
  endfacet
  facet normal -1 -0 0
    outer loop
      vertex -34 50 20
      vertex -34 -50 0
      vertex -34 -50 20
    endloop
  endfacet
  facet normal -0 0 1
    outer loop
      vertex 30 -25 20
      vertex 32 -28 20
      vertex 32 -25 20
    endloop
  endfacet
  facet normal 0 0 1
    outer loop
      vertex 32 -28 20
      vertex 30 -25 20
      vertex 30 -28 20
    endloop
  endfacet
  facet normal -0 0 1
    outer loop
      vertex 30 31 20
      vertex 32 28 20
      vertex 32 31 20
    endloop
  endfacet
  facet normal 0 0 1
    outer loop
      vertex 32 28 20
      vertex 30 31 20
      vertex 30 28 20
    endloop
  endfacet
  facet normal 0 0 1
    outer loop
      vertex 32 31 20
      vertex 34 50 20
      vertex 32 48 20
    endloop
  endfacet
  facet normal 0 0 1
    outer loop
      vertex 34 50 20
      vertex -32 48 20
      vertex 32 48 20
    endloop
  endfacet
  facet normal 0 0 1
    outer loop
      vertex -34 50 20
      vertex -32 31 20
      vertex -32 48 20
    endloop
  endfacet
  facet normal 0 0 1
    outer loop
      vertex -32 31 20
      vertex -34 50 20
      vertex -32 28 20
    endloop
  endfacet
  facet normal 0 0 1
    outer loop
      vertex -32 28 20
      vertex -34 50 20
      vertex -32 -25 20
    endloop
  endfacet
  facet normal 0 0 1
    outer loop
      vertex -34 -50 20
      vertex -32 -25 20
      vertex -34 50 20
    endloop
  endfacet
  facet normal 0 0 1
    outer loop
      vertex -32 -25 20
      vertex -34 -50 20
      vertex -32 -28 20
    endloop
  endfacet
  facet normal -0 0 1
    outer loop
      vertex -34 50 20
      vertex -32 48 20
      vertex 34 50 20
    endloop
  endfacet
  facet normal 0 0 1
    outer loop
      vertex 32 28 20
      vertex 34 50 20
      vertex 32 31 20
    endloop
  endfacet
  facet normal 0 0 1
    outer loop
      vertex 32 -25 20
      vertex 34 50 20
      vertex 32 28 20
    endloop
  endfacet
  facet normal 0 0 1
    outer loop
      vertex 34 50 20
      vertex 32 -25 20
      vertex 34 -50 20
    endloop
  endfacet
  facet normal -0 0 1
    outer loop
      vertex 32 -28 20
      vertex 34 -50 20
      vertex 32 -25 20
    endloop
  endfacet
  facet normal -0 0 1
    outer loop
      vertex 32 -48 20
      vertex 34 -50 20
      vertex 32 -28 20
    endloop
  endfacet
  facet normal -0 0 1
    outer loop
      vertex -32 -48 20
      vertex 34 -50 20
      vertex 32 -48 20
    endloop
  endfacet
  facet normal 0 0 1
    outer loop
      vertex -32 -48 20
      vertex -34 -50 20
      vertex 34 -50 20
    endloop
  endfacet
  facet normal 0 0 1
    outer loop
      vertex -32 -28 20
      vertex -34 -50 20
      vertex -32 -48 20
    endloop
  endfacet
  facet normal -0 0 1
    outer loop
      vertex -32 31 20
      vertex -30 28 20
      vertex -30 31 20
    endloop
  endfacet
  facet normal 0 0 1
    outer loop
      vertex -30 28 20
      vertex -32 31 20
      vertex -32 28 20
    endloop
  endfacet
  facet normal -0 0 1
    outer loop
      vertex -32 -25 20
      vertex -30 -28 20
      vertex -30 -25 20
    endloop
  endfacet
  facet normal 0 0 1
    outer loop
      vertex -30 -28 20
      vertex -32 -25 20
      vertex -32 -28 20
    endloop
  endfacet
  facet normal 0 1 -0
    outer loop
      vertex 34 50 0
      vertex -34 50 20
      vertex 34 50 20
    endloop
  endfacet
  facet normal 0 1 0
    outer loop
      vertex -34 50 20
      vertex 34 50 0
      vertex -34 50 0
    endloop
  endfacet
  facet normal 1 -0 0
    outer loop
      vertex 34 -50 20
      vertex 34 50 0
      vertex 34 50 20
    endloop
  endfacet
  facet normal 1 0 0
    outer loop
      vertex 34 50 0
      vertex 34 -50 20
      vertex 34 -50 0
    endloop
  endfacet
  facet normal 0 -1 0
    outer loop
      vertex -34 -50 0
      vertex 34 -50 20
      vertex -34 -50 20
    endloop
  endfacet
  facet normal 0 -1 -0
    outer loop
      vertex 34 -50 20
      vertex -34 -50 0
      vertex 34 -50 0
    endloop
  endfacet
  facet normal -0 0 1
    outer loop
      vertex -32 28 3
      vertex -30 -25 3
      vertex -30 28 3
    endloop
  endfacet
  facet normal 0 0 1
    outer loop
      vertex -30 -25 3
      vertex -32 28 3
      vertex -32 -25 3
    endloop
  endfacet
  facet normal 0 0 1
    outer loop
      vertex 32 48 3
      vertex 30 31 3
      vertex 32 31 3
    endloop
  endfacet
  facet normal 0 0 1
    outer loop
      vertex -30 28 3
      vertex 30 28 3
      vertex 30 31 3
    endloop
  endfacet
  facet normal 0 0 1
    outer loop
      vertex 30 28 3
      vertex -30 28 3
      vertex 30 -25 3
    endloop
  endfacet
  facet normal 0 0 1
    outer loop
      vertex -30 28 3
      vertex 30 31 3
      vertex -30 31 3
    endloop
  endfacet
  facet normal 0 0 1
    outer loop
      vertex 32 48 3
      vertex -30 31 3
      vertex 30 31 3
    endloop
  endfacet
  facet normal -0 0 1
    outer loop
      vertex -32 48 3
      vertex -30 31 3
      vertex 32 48 3
    endloop
  endfacet
  facet normal 0 0 1
    outer loop
      vertex -30 31 3
      vertex -32 48 3
      vertex -32 31 3
    endloop
  endfacet
  facet normal -0 0 1
    outer loop
      vertex 30 28 3
      vertex 32 -25 3
      vertex 32 28 3
    endloop
  endfacet
  facet normal 0 0 1
    outer loop
      vertex 32 -25 3
      vertex 30 28 3
      vertex 30 -25 3
    endloop
  endfacet
  facet normal -0 0 1
    outer loop
      vertex 30 -28 3
      vertex 32 -48 3
      vertex 32 -28 3
    endloop
  endfacet
  facet normal 0 0 1
    outer loop
      vertex -30 -25 3
      vertex 30 -25 3
      vertex -30 28 3
    endloop
  endfacet
  facet normal 0 0 1
    outer loop
      vertex 30 -25 3
      vertex -30 -25 3
      vertex 30 -28 3
    endloop
  endfacet
  facet normal 0 0 1
    outer loop
      vertex -30 -28 3
      vertex 30 -28 3
      vertex -30 -25 3
    endloop
  endfacet
  facet normal 0 0 1
    outer loop
      vertex 30 -28 3
      vertex -30 -28 3
      vertex 32 -48 3
    endloop
  endfacet
  facet normal 0 0 1
    outer loop
      vertex -32 -48 3
      vertex -30 -28 3
      vertex -32 -28 3
    endloop
  endfacet
  facet normal 0 0 1
    outer loop
      vertex -30 -28 3
      vertex -32 -48 3
      vertex 32 -48 3
    endloop
  endfacet
  facet normal 1 -0 0
    outer loop
      vertex -32 -25 20
      vertex -32 28 3
      vertex -32 28 20
    endloop
  endfacet
  facet normal 1 0 0
    outer loop
      vertex -32 28 3
      vertex -32 -25 20
      vertex -32 -25 3
    endloop
  endfacet
  facet normal 1 -0 0
    outer loop
      vertex -32 -48 20
      vertex -32 -28 3
      vertex -32 -28 20
    endloop
  endfacet
  facet normal 1 0 0
    outer loop
      vertex -32 -28 3
      vertex -32 -48 20
      vertex -32 -48 3
    endloop
  endfacet
  facet normal 1 -0 0
    outer loop
      vertex -32 31 20
      vertex -32 48 3
      vertex -32 48 20
    endloop
  endfacet
  facet normal 1 0 0
    outer loop
      vertex -32 48 3
      vertex -32 31 20
      vertex -32 31 3
    endloop
  endfacet
  facet normal 0 -1 0
    outer loop
      vertex -32 48 3
      vertex 32 48 20
      vertex -32 48 20
    endloop
  endfacet
  facet normal 0 -1 -0
    outer loop
      vertex 32 48 20
      vertex -32 48 3
      vertex 32 48 3
    endloop
  endfacet
  facet normal -1 0 0
    outer loop
      vertex 32 -25 3
      vertex 32 28 20
      vertex 32 28 3
    endloop
  endfacet
  facet normal -1 -0 0
    outer loop
      vertex 32 28 20
      vertex 32 -25 3
      vertex 32 -25 20
    endloop
  endfacet
  facet normal -1 0 0
    outer loop
      vertex 32 -48 3
      vertex 32 -28 20
      vertex 32 -28 3
    endloop
  endfacet
  facet normal -1 -0 0
    outer loop
      vertex 32 -28 20
      vertex 32 -48 3
      vertex 32 -48 20
    endloop
  endfacet
  facet normal -1 0 0
    outer loop
      vertex 32 31 3
      vertex 32 48 20
      vertex 32 48 3
    endloop
  endfacet
  facet normal -1 -0 0
    outer loop
      vertex 32 48 20
      vertex 32 31 3
      vertex 32 31 20
    endloop
  endfacet
  facet normal 0 1 -0
    outer loop
      vertex 32 -48 3
      vertex -32 -48 20
      vertex 32 -48 20
    endloop
  endfacet
  facet normal 0 1 0
    outer loop
      vertex -32 -48 20
      vertex 32 -48 3
      vertex -32 -48 3
    endloop
  endfacet
  facet normal -1 0 0
    outer loop
      vertex 30 28 3
      vertex 30 31 20
      vertex 30 31 3
    endloop
  endfacet
  facet normal -1 -0 0
    outer loop
      vertex 30 31 20
      vertex 30 28 3
      vertex 30 28 20
    endloop
  endfacet
  facet normal 0 1 -0
    outer loop
      vertex 32 31 3
      vertex 30 31 20
      vertex 32 31 20
    endloop
  endfacet
  facet normal 0 1 0
    outer loop
      vertex 30 31 20
      vertex 32 31 3
      vertex 30 31 3
    endloop
  endfacet
  facet normal 0 -1 0
    outer loop
      vertex 30 28 3
      vertex 32 28 20
      vertex 30 28 20
    endloop
  endfacet
  facet normal 0 -1 -0
    outer loop
      vertex 32 28 20
      vertex 30 28 3
      vertex 32 28 3
    endloop
  endfacet
  facet normal 0 1 -0
    outer loop
      vertex -30 31 3
      vertex -32 31 20
      vertex -30 31 20
    endloop
  endfacet
  facet normal 0 1 0
    outer loop
      vertex -32 31 20
      vertex -30 31 3
      vertex -32 31 3
    endloop
  endfacet
  facet normal 1 -0 0
    outer loop
      vertex -30 28 20
      vertex -30 31 3
      vertex -30 31 20
    endloop
  endfacet
  facet normal 1 0 0
    outer loop
      vertex -30 31 3
      vertex -30 28 20
      vertex -30 28 3
    endloop
  endfacet
  facet normal 0 -1 0
    outer loop
      vertex -32 28 3
      vertex -30 28 20
      vertex -32 28 20
    endloop
  endfacet
  facet normal 0 -1 -0
    outer loop
      vertex -30 28 20
      vertex -32 28 3
      vertex -30 28 3
    endloop
  endfacet
  facet normal -1 0 0
    outer loop
      vertex 30 -28 3
      vertex 30 -25 20
      vertex 30 -25 3
    endloop
  endfacet
  facet normal -1 -0 0
    outer loop
      vertex 30 -25 20
      vertex 30 -28 3
      vertex 30 -28 20
    endloop
  endfacet
  facet normal 0 1 -0
    outer loop
      vertex 32 -25 3
      vertex 30 -25 20
      vertex 32 -25 20
    endloop
  endfacet
  facet normal 0 1 0
    outer loop
      vertex 30 -25 20
      vertex 32 -25 3
      vertex 30 -25 3
    endloop
  endfacet
  facet normal 0 -1 0
    outer loop
      vertex 30 -28 3
      vertex 32 -28 20
      vertex 30 -28 20
    endloop
  endfacet
  facet normal 0 -1 -0
    outer loop
      vertex 32 -28 20
      vertex 30 -28 3
      vertex 32 -28 3
    endloop
  endfacet
  facet normal 0 1 -0
    outer loop
      vertex -30 -25 3
      vertex -32 -25 20
      vertex -30 -25 20
    endloop
  endfacet
  facet normal 0 1 0
    outer loop
      vertex -32 -25 20
      vertex -30 -25 3
      vertex -32 -25 3
    endloop
  endfacet
  facet normal 1 -0 0
    outer loop
      vertex -30 -28 20
      vertex -30 -25 3
      vertex -30 -25 20
    endloop
  endfacet
  facet normal 1 0 0
    outer loop
      vertex -30 -25 3
      vertex -30 -28 20
      vertex -30 -28 3
    endloop
  endfacet
  facet normal 0 -1 0
    outer loop
      vertex -32 -28 3
      vertex -30 -28 20
      vertex -32 -28 20
    endloop
  endfacet
  facet normal 0 -1 -0
    outer loop
      vertex -30 -28 20
      vertex -32 -28 3
      vertex -30 -28 3
    endloop
  endfacet
endsolid OpenSCAD_Model
