solid OpenSCAD_Model
  facet normal 0 0 -1
    outer loop
      vertex -17 -35.5 0
      vertex 17 35.5 0
      vertex 17 -35.5 0
    endloop
  endfacet
  facet normal -0 0 -1
    outer loop
      vertex 17 35.5 0
      vertex -17 -35.5 0
      vertex -17 35.5 0
    endloop
  endfacet
  facet normal -1 0 0
    outer loop
      vertex -17 -35.5 0
      vertex -17 35.5 26
      vertex -17 35.5 0
    endloop
  endfacet
  facet normal -1 -0 0
    outer loop
      vertex -17 35.5 26
      vertex -17 -35.5 0
      vertex -17 -35.5 26
    endloop
  endfacet
  facet normal 0 0 1
    outer loop
      vertex 17 35.5 26
      vertex 15 33.5 26
      vertex 17 -35.5 26
    endloop
  endfacet
  facet normal 0 0 1
    outer loop
      vertex 17 35.5 26
      vertex -15 33.5 26
      vertex 15 33.5 26
    endloop
  endfacet
  facet normal 0 0 1
    outer loop
      vertex -15 33.5 26
      vertex -17 35.5 26
      vertex -15 -33.5 26
    endloop
  endfacet
  facet normal -0 0 1
    outer loop
      vertex -17 35.5 26
      vertex -15 33.5 26
      vertex 17 35.5 26
    endloop
  endfacet
  facet normal -0 0 1
    outer loop
      vertex 15 -33.5 26
      vertex 17 -35.5 26
      vertex 15 33.5 26
    endloop
  endfacet
  facet normal -0 0 1
    outer loop
      vertex -15 -33.5 26
      vertex 17 -35.5 26
      vertex 15 -33.5 26
    endloop
  endfacet
  facet normal 0 0 1
    outer loop
      vertex -15 -33.5 26
      vertex -17 -35.5 26
      vertex 17 -35.5 26
    endloop
  endfacet
  facet normal 0 0 1
    outer loop
      vertex -17 -35.5 26
      vertex -15 -33.5 26
      vertex -17 35.5 26
    endloop
  endfacet
  facet normal 0 1 0
    outer loop
      vertex 7.97906 35.5 11.6211
      vertex 17 35.5 26
      vertex 8.5 35.5 11.6667
    endloop
  endfacet
  facet normal 0 1 0
    outer loop
      vertex 17 35.5 26
      vertex 9.02094 35.5 11.6211
      vertex 8.5 35.5 11.6667
    endloop
  endfacet
  facet normal 0 1 0
    outer loop
      vertex 17 35.5 26
      vertex 9.52606 35.5 11.4857
      vertex 9.02094 35.5 11.6211
    endloop
  endfacet
  facet normal 0 1 0
    outer loop
      vertex 17 35.5 26
      vertex 10 35.5 11.2647
      vertex 9.52606 35.5 11.4857
    endloop
  endfacet
  facet normal 0 1 0
    outer loop
      vertex 17 35.5 26
      vertex 10.4284 35.5 10.9648
      vertex 10 35.5 11.2647
    endloop
  endfacet
  facet normal 0 1 0
    outer loop
      vertex 17 35.5 26
      vertex 10.7981 35.5 10.595
      vertex 10.4284 35.5 10.9648
    endloop
  endfacet
  facet normal 0 1 0
    outer loop
      vertex 17 35.5 26
      vertex 11.0981 35.5 10.1667
      vertex 10.7981 35.5 10.595
    endloop
  endfacet
  facet normal 0 1 0
    outer loop
      vertex 17 35.5 26
      vertex 11.3191 35.5 9.69273
      vertex 11.0981 35.5 10.1667
    endloop
  endfacet
  facet normal 0 1 0
    outer loop
      vertex 17 35.5 26
      vertex 11.4544 35.5 9.18761
      vertex 11.3191 35.5 9.69273
    endloop
  endfacet
  facet normal 0 1 -0
    outer loop
      vertex 17 35.5 0
      vertex 11.4544 35.5 9.18761
      vertex 17 35.5 26
    endloop
  endfacet
  facet normal 0 1 0
    outer loop
      vertex 11.4544 35.5 9.18761
      vertex 17 35.5 0
      vertex 11.5 35.5 8.66667
    endloop
  endfacet
  facet normal 0 1 0
    outer loop
      vertex 11.5 35.5 8.66667
      vertex 17 35.5 0
      vertex 11.4544 35.5 8.14572
    endloop
  endfacet
  facet normal 0 1 0
    outer loop
      vertex 9.02094 35.5 5.71224
      vertex 17 35.5 0
      vertex 8.5 35.5 5.66667
    endloop
  endfacet
  facet normal 0 1 0
    outer loop
      vertex 9.52606 35.5 5.84759
      vertex 17 35.5 0
      vertex 9.02094 35.5 5.71224
    endloop
  endfacet
  facet normal 0 1 0
    outer loop
      vertex 10 35.5 6.06859
      vertex 17 35.5 0
      vertex 9.52606 35.5 5.84759
    endloop
  endfacet
  facet normal 0 1 0
    outer loop
      vertex 10.4284 35.5 6.36853
      vertex 17 35.5 0
      vertex 10 35.5 6.06859
    endloop
  endfacet
  facet normal 0 1 0
    outer loop
      vertex 10.7981 35.5 6.7383
      vertex 17 35.5 0
      vertex 10.4284 35.5 6.36853
    endloop
  endfacet
  facet normal 0 1 0
    outer loop
      vertex 11.0981 35.5 7.16667
      vertex 17 35.5 0
      vertex 10.7981 35.5 6.7383
    endloop
  endfacet
  facet normal 0 1 0
    outer loop
      vertex 11.3191 35.5 7.64061
      vertex 17 35.5 0
      vertex 11.0981 35.5 7.16667
    endloop
  endfacet
  facet normal 0 1 0
    outer loop
      vertex 11.4544 35.5 8.14572
      vertex 17 35.5 0
      vertex 11.3191 35.5 7.64061
    endloop
  endfacet
  facet normal 0 1 0
    outer loop
      vertex 7.47394 35.5 11.4857
      vertex 17 35.5 26
      vertex 7.97906 35.5 11.6211
    endloop
  endfacet
  facet normal 0 1 0
    outer loop
      vertex 17 35.5 26
      vertex 7.47394 35.5 11.4857
      vertex -17 35.5 26
    endloop
  endfacet
  facet normal 0 1 -0
    outer loop
      vertex 7 35.5 11.2647
      vertex -17 35.5 26
      vertex 7.47394 35.5 11.4857
    endloop
  endfacet
  facet normal 0 1 -0
    outer loop
      vertex 6.57164 35.5 10.9648
      vertex -17 35.5 26
      vertex 7 35.5 11.2647
    endloop
  endfacet
  facet normal 0 1 -0
    outer loop
      vertex 6.20187 35.5 10.595
      vertex -17 35.5 26
      vertex 6.57164 35.5 10.9648
    endloop
  endfacet
  facet normal 0 1 -0
    outer loop
      vertex 5.90192 35.5 10.1667
      vertex -17 35.5 26
      vertex 6.20187 35.5 10.595
    endloop
  endfacet
  facet normal 0 1 -0
    outer loop
      vertex 5.68092 35.5 9.69273
      vertex -17 35.5 26
      vertex 5.90192 35.5 10.1667
    endloop
  endfacet
  facet normal 0 1 -0
    outer loop
      vertex 5.54558 35.5 9.18761
      vertex -17 35.5 26
      vertex 5.68092 35.5 9.69273
    endloop
  endfacet
  facet normal 0 1 0
    outer loop
      vertex -17 35.5 0
      vertex 5.54558 35.5 9.18761
      vertex 5.5 35.5 8.66667
    endloop
  endfacet
  facet normal 0 1 0
    outer loop
      vertex -17 35.5 0
      vertex 5.5 35.5 8.66667
      vertex 5.54558 35.5 8.14572
    endloop
  endfacet
  facet normal 0 1 0
    outer loop
      vertex -17 35.5 0
      vertex 5.54558 35.5 8.14572
      vertex 5.68092 35.5 7.64061
    endloop
  endfacet
  facet normal 0 1 0
    outer loop
      vertex -17 35.5 0
      vertex 5.68092 35.5 7.64061
      vertex 5.90192 35.5 7.16667
    endloop
  endfacet
  facet normal 0 1 0
    outer loop
      vertex -17 35.5 0
      vertex 5.90192 35.5 7.16667
      vertex 6.20187 35.5 6.7383
    endloop
  endfacet
  facet normal 0 1 0
    outer loop
      vertex -17 35.5 0
      vertex 6.20187 35.5 6.7383
      vertex 6.57164 35.5 6.36853
    endloop
  endfacet
  facet normal 0 1 0
    outer loop
      vertex 17 35.5 0
      vertex 7.97906 35.5 5.71224
      vertex 8.5 35.5 5.66667
    endloop
  endfacet
  facet normal 0 1 0
    outer loop
      vertex 17 35.5 0
      vertex 7.47394 35.5 5.84759
      vertex 7.97906 35.5 5.71224
    endloop
  endfacet
  facet normal 0 1 0
    outer loop
      vertex -17 35.5 0
      vertex 7.47394 35.5 5.84759
      vertex 17 35.5 0
    endloop
  endfacet
  facet normal 0 1 0
    outer loop
      vertex 5.54558 35.5 9.18761
      vertex -17 35.5 0
      vertex -17 35.5 26
    endloop
  endfacet
  facet normal 0 1 0
    outer loop
      vertex 7 35.5 6.06859
      vertex -17 35.5 0
      vertex 6.57164 35.5 6.36853
    endloop
  endfacet
  facet normal 0 1 0
    outer loop
      vertex 7.47394 35.5 5.84759
      vertex -17 35.5 0
      vertex 7 35.5 6.06859
    endloop
  endfacet
  facet normal 1 -0 0
    outer loop
      vertex 17 -35.5 26
      vertex 17 35.5 0
      vertex 17 35.5 26
    endloop
  endfacet
  facet normal 1 0 0
    outer loop
      vertex 17 35.5 0
      vertex 17 -35.5 26
      vertex 17 -35.5 0
    endloop
  endfacet
  facet normal 0 -1 0
    outer loop
      vertex -7.97906 -35.5 11.6211
      vertex -17 -35.5 26
      vertex -8.5 -35.5 11.6667
    endloop
  endfacet
  facet normal 0 -1 0
    outer loop
      vertex -17 -35.5 26
      vertex -9.02094 -35.5 11.6211
      vertex -8.5 -35.5 11.6667
    endloop
  endfacet
  facet normal 0 -1 0
    outer loop
      vertex -17 -35.5 26
      vertex -9.52606 -35.5 11.4857
      vertex -9.02094 -35.5 11.6211
    endloop
  endfacet
  facet normal 0 -1 0
    outer loop
      vertex -17 -35.5 26
      vertex -10 -35.5 11.2647
      vertex -9.52606 -35.5 11.4857
    endloop
  endfacet
  facet normal 0 -1 0
    outer loop
      vertex -17 -35.5 26
      vertex -10.4284 -35.5 10.9648
      vertex -10 -35.5 11.2647
    endloop
  endfacet
  facet normal 0 -1 0
    outer loop
      vertex -17 -35.5 26
      vertex -10.7981 -35.5 10.595
      vertex -10.4284 -35.5 10.9648
    endloop
  endfacet
  facet normal 0 -1 0
    outer loop
      vertex -17 -35.5 26
      vertex -11.0981 -35.5 10.1667
      vertex -10.7981 -35.5 10.595
    endloop
  endfacet
  facet normal 0 -1 0
    outer loop
      vertex -17 -35.5 26
      vertex -11.3191 -35.5 9.69273
      vertex -11.0981 -35.5 10.1667
    endloop
  endfacet
  facet normal 0 -1 0
    outer loop
      vertex -17 -35.5 26
      vertex -11.4544 -35.5 9.18761
      vertex -11.3191 -35.5 9.69273
    endloop
  endfacet
  facet normal 0 -1 0
    outer loop
      vertex -17 -35.5 0
      vertex -11.4544 -35.5 9.18761
      vertex -17 -35.5 26
    endloop
  endfacet
  facet normal 0 -1 0
    outer loop
      vertex -11.4544 -35.5 9.18761
      vertex -17 -35.5 0
      vertex -11.5 -35.5 8.66667
    endloop
  endfacet
  facet normal 0 -1 -0
    outer loop
      vertex -11.5 -35.5 8.66667
      vertex -17 -35.5 0
      vertex -11.4544 -35.5 8.14572
    endloop
  endfacet
  facet normal 0 -1 -0
    outer loop
      vertex -9.02094 -35.5 5.71224
      vertex -17 -35.5 0
      vertex -8.5 -35.5 5.66667
    endloop
  endfacet
  facet normal 0 -1 -0
    outer loop
      vertex -9.52606 -35.5 5.84759
      vertex -17 -35.5 0
      vertex -9.02094 -35.5 5.71224
    endloop
  endfacet
  facet normal 0 -1 -0
    outer loop
      vertex -10 -35.5 6.06859
      vertex -17 -35.5 0
      vertex -9.52606 -35.5 5.84759
    endloop
  endfacet
  facet normal 0 -1 -0
    outer loop
      vertex -10.4284 -35.5 6.36853
      vertex -17 -35.5 0
      vertex -10 -35.5 6.06859
    endloop
  endfacet
  facet normal 0 -1 -0
    outer loop
      vertex -10.7981 -35.5 6.7383
      vertex -17 -35.5 0
      vertex -10.4284 -35.5 6.36853
    endloop
  endfacet
  facet normal 0 -1 -0
    outer loop
      vertex -11.0981 -35.5 7.16667
      vertex -17 -35.5 0
      vertex -10.7981 -35.5 6.7383
    endloop
  endfacet
  facet normal 0 -1 -0
    outer loop
      vertex -11.3191 -35.5 7.64061
      vertex -17 -35.5 0
      vertex -11.0981 -35.5 7.16667
    endloop
  endfacet
  facet normal 0 -1 -0
    outer loop
      vertex -11.4544 -35.5 8.14572
      vertex -17 -35.5 0
      vertex -11.3191 -35.5 7.64061
    endloop
  endfacet
  facet normal 0 -1 0
    outer loop
      vertex -7.47394 -35.5 11.4857
      vertex -17 -35.5 26
      vertex -7.97906 -35.5 11.6211
    endloop
  endfacet
  facet normal 0 -1 0
    outer loop
      vertex -17 -35.5 26
      vertex -7.47394 -35.5 11.4857
      vertex 17 -35.5 26
    endloop
  endfacet
  facet normal 0 -1 0
    outer loop
      vertex -7 -35.5 11.2647
      vertex 17 -35.5 26
      vertex -7.47394 -35.5 11.4857
    endloop
  endfacet
  facet normal 0 -1 0
    outer loop
      vertex -6.57164 -35.5 10.9648
      vertex 17 -35.5 26
      vertex -7 -35.5 11.2647
    endloop
  endfacet
  facet normal 0 -1 0
    outer loop
      vertex -6.20187 -35.5 10.595
      vertex 17 -35.5 26
      vertex -6.57164 -35.5 10.9648
    endloop
  endfacet
  facet normal 0 -1 0
    outer loop
      vertex -5.90192 -35.5 10.1667
      vertex 17 -35.5 26
      vertex -6.20187 -35.5 10.595
    endloop
  endfacet
  facet normal 0 -1 0
    outer loop
      vertex -5.68092 -35.5 9.69273
      vertex 17 -35.5 26
      vertex -5.90192 -35.5 10.1667
    endloop
  endfacet
  facet normal 0 -1 0
    outer loop
      vertex -5.54558 -35.5 9.18761
      vertex 17 -35.5 26
      vertex -5.68092 -35.5 9.69273
    endloop
  endfacet
  facet normal 0 -1 0
    outer loop
      vertex 17 -35.5 0
      vertex -5.54558 -35.5 9.18761
      vertex -5.5 -35.5 8.66667
    endloop
  endfacet
  facet normal 0 -1 0
    outer loop
      vertex 17 -35.5 0
      vertex -5.5 -35.5 8.66667
      vertex -5.54558 -35.5 8.14572
    endloop
  endfacet
  facet normal 0 -1 0
    outer loop
      vertex 17 -35.5 0
      vertex -5.54558 -35.5 8.14572
      vertex -5.68092 -35.5 7.64061
    endloop
  endfacet
  facet normal 0 -1 0
    outer loop
      vertex 17 -35.5 0
      vertex -5.68092 -35.5 7.64061
      vertex -5.90192 -35.5 7.16667
    endloop
  endfacet
  facet normal 0 -1 0
    outer loop
      vertex 17 -35.5 0
      vertex -5.90192 -35.5 7.16667
      vertex -6.20187 -35.5 6.7383
    endloop
  endfacet
  facet normal 0 -1 0
    outer loop
      vertex 17 -35.5 0
      vertex -6.20187 -35.5 6.7383
      vertex -6.57164 -35.5 6.36853
    endloop
  endfacet
  facet normal 0 -1 0
    outer loop
      vertex -17 -35.5 0
      vertex -7.97906 -35.5 5.71224
      vertex -8.5 -35.5 5.66667
    endloop
  endfacet
  facet normal 0 -1 0
    outer loop
      vertex -17 -35.5 0
      vertex -7.47394 -35.5 5.84759
      vertex -7.97906 -35.5 5.71224
    endloop
  endfacet
  facet normal 0 -1 0
    outer loop
      vertex 17 -35.5 0
      vertex -7.47394 -35.5 5.84759
      vertex -17 -35.5 0
    endloop
  endfacet
  facet normal 0 -1 0
    outer loop
      vertex -5.54558 -35.5 9.18761
      vertex 17 -35.5 0
      vertex 17 -35.5 26
    endloop
  endfacet
  facet normal 0 -1 0
    outer loop
      vertex -7 -35.5 6.06859
      vertex 17 -35.5 0
      vertex -6.57164 -35.5 6.36853
    endloop
  endfacet
  facet normal 0 -1 0
    outer loop
      vertex -7.47394 -35.5 5.84759
      vertex 17 -35.5 0
      vertex -7 -35.5 6.06859
    endloop
  endfacet
  facet normal 0 0 1
    outer loop
      vertex -11.5858 -22.0858 3
      vertex 11.5858 -22.0858 3
      vertex -11.5858 22.0858 3
    endloop
  endfacet
  facet normal 0 0 1
    outer loop
      vertex 11.5858 -22.0858 3
      vertex -11.5858 -22.0858 3
      vertex -11 -23.5 3
    endloop
  endfacet
  facet normal -0 0 1
    outer loop
      vertex -13 21.5 3
      vertex -11.5858 -22.0858 3
      vertex -11.5858 22.0858 3
    endloop
  endfacet
  facet normal 0 0 1
    outer loop
      vertex -13 21.5 3
      vertex -13 -21.5 3
      vertex -11.5858 -22.0858 3
    endloop
  endfacet
  facet normal 0 0 1
    outer loop
      vertex -14.4142 22.0858 3
      vertex -13 -21.5 3
      vertex -13 21.5 3
    endloop
  endfacet
  facet normal 0 0 1
    outer loop
      vertex -14.4142 22.0858 3
      vertex -14.4142 -22.0858 3
      vertex -13 -21.5 3
    endloop
  endfacet
  facet normal 0 0 1
    outer loop
      vertex -15 23.5 3
      vertex -14.4142 -22.0858 3
      vertex -14.4142 22.0858 3
    endloop
  endfacet
  facet normal 0 0 1
    outer loop
      vertex -14.4142 -22.0858 3
      vertex -15 23.5 3
      vertex -15 -23.5 3
    endloop
  endfacet
  facet normal 0 0 1
    outer loop
      vertex 15 33.5 3
      vertex 14.4142 24.9142 3
      vertex 15 23.5 3
    endloop
  endfacet
  facet normal 0 0 1
    outer loop
      vertex 15 33.5 3
      vertex 13 25.5 3
      vertex 14.4142 24.9142 3
    endloop
  endfacet
  facet normal 0 0 1
    outer loop
      vertex 15 33.5 3
      vertex 11.5858 24.9142 3
      vertex 13 25.5 3
    endloop
  endfacet
  facet normal 0 0 1
    outer loop
      vertex -11.5858 24.9142 3
      vertex 11.5858 24.9142 3
      vertex 15 33.5 3
    endloop
  endfacet
  facet normal 0 0 1
    outer loop
      vertex 11.5858 22.0858 3
      vertex -11.5858 22.0858 3
      vertex 11.5858 -22.0858 3
    endloop
  endfacet
  facet normal 0 0 1
    outer loop
      vertex 11.5858 24.9142 3
      vertex -11.5858 24.9142 3
      vertex 11 23.5 3
    endloop
  endfacet
  facet normal 0 0 1
    outer loop
      vertex 11 23.5 3
      vertex -11.5858 24.9142 3
      vertex -11 23.5 3
    endloop
  endfacet
  facet normal -0 0 1
    outer loop
      vertex -15 33.5 3
      vertex -11.5858 24.9142 3
      vertex 15 33.5 3
    endloop
  endfacet
  facet normal 0 0 1
    outer loop
      vertex -11.5858 24.9142 3
      vertex -15 33.5 3
      vertex -13 25.5 3
    endloop
  endfacet
  facet normal 0 0 1
    outer loop
      vertex -15 33.5 3
      vertex -14.4142 24.9142 3
      vertex -13 25.5 3
    endloop
  endfacet
  facet normal 0 0 1
    outer loop
      vertex -14.4142 24.9142 3
      vertex -15 33.5 3
      vertex -15 23.5 3
    endloop
  endfacet
  facet normal -0 0 1
    outer loop
      vertex 14.4142 22.0858 3
      vertex 15 -23.5 3
      vertex 15 23.5 3
    endloop
  endfacet
  facet normal 0 0 1
    outer loop
      vertex 14.4142 22.0858 3
      vertex 14.4142 -22.0858 3
      vertex 15 -23.5 3
    endloop
  endfacet
  facet normal -0 0 1
    outer loop
      vertex 13 21.5 3
      vertex 14.4142 -22.0858 3
      vertex 14.4142 22.0858 3
    endloop
  endfacet
  facet normal 0 0 1
    outer loop
      vertex 13 21.5 3
      vertex 13 -21.5 3
      vertex 14.4142 -22.0858 3
    endloop
  endfacet
  facet normal 0 0 1
    outer loop
      vertex 11.5858 22.0858 3
      vertex 13 -21.5 3
      vertex 13 21.5 3
    endloop
  endfacet
  facet normal 0 0 1
    outer loop
      vertex 11.5858 22.0858 3
      vertex 11.5858 -22.0858 3
      vertex 13 -21.5 3
    endloop
  endfacet
  facet normal -0 0 1
    outer loop
      vertex -11 23.5 3
      vertex 11.5858 22.0858 3
      vertex 11 23.5 3
    endloop
  endfacet
  facet normal 0 0 1
    outer loop
      vertex -11.5858 22.0858 3
      vertex 11.5858 22.0858 3
      vertex -11 23.5 3
    endloop
  endfacet
  facet normal -0 0 1
    outer loop
      vertex 14.4142 -24.9142 3
      vertex 15 -33.5 3
      vertex 15 -23.5 3
    endloop
  endfacet
  facet normal -0 0 1
    outer loop
      vertex 13 -25.5 3
      vertex 15 -33.5 3
      vertex 14.4142 -24.9142 3
    endloop
  endfacet
  facet normal 0 0 1
    outer loop
      vertex 11.5858 -24.9142 3
      vertex 15 -33.5 3
      vertex 13 -25.5 3
    endloop
  endfacet
  facet normal 0 0 1
    outer loop
      vertex -11.5858 -24.9142 3
      vertex 11.5858 -24.9142 3
      vertex 11 -23.5 3
    endloop
  endfacet
  facet normal 0 0 1
    outer loop
      vertex 11.5858 -22.0858 3
      vertex -11 -23.5 3
      vertex 11 -23.5 3
    endloop
  endfacet
  facet normal 0 0 1
    outer loop
      vertex -11.5858 -24.9142 3
      vertex 11 -23.5 3
      vertex -11 -23.5 3
    endloop
  endfacet
  facet normal 0 0 1
    outer loop
      vertex 11.5858 -24.9142 3
      vertex -11.5858 -24.9142 3
      vertex 15 -33.5 3
    endloop
  endfacet
  facet normal 0 0 1
    outer loop
      vertex -15 -33.5 3
      vertex -11.5858 -24.9142 3
      vertex -13 -25.5 3
    endloop
  endfacet
  facet normal 0 0 1
    outer loop
      vertex -11.5858 -24.9142 3
      vertex -15 -33.5 3
      vertex 15 -33.5 3
    endloop
  endfacet
  facet normal 0 0 1
    outer loop
      vertex -14.4142 -24.9142 3
      vertex -15 -33.5 3
      vertex -13 -25.5 3
    endloop
  endfacet
  facet normal 0 0 1
    outer loop
      vertex -15 -33.5 3
      vertex -14.4142 -24.9142 3
      vertex -15 -23.5 3
    endloop
  endfacet
  facet normal 0 0 1
    outer loop
      vertex -12.1161 -22.6161 3
      vertex -12.1161 -24.3839 3
      vertex -11.75 -23.5 3
    endloop
  endfacet
  facet normal 0 0 1
    outer loop
      vertex -13 -22.25 3
      vertex -12.1161 -24.3839 3
      vertex -12.1161 -22.6161 3
    endloop
  endfacet
  facet normal 0 0 1
    outer loop
      vertex -13 -22.25 3
      vertex -13 -24.75 3
      vertex -12.1161 -24.3839 3
    endloop
  endfacet
  facet normal -0 0 1
    outer loop
      vertex -13.8839 -22.6161 3
      vertex -13 -24.75 3
      vertex -13 -22.25 3
    endloop
  endfacet
  facet normal 0 0 1
    outer loop
      vertex -13.8839 -22.6161 3
      vertex -13.8839 -24.3839 3
      vertex -13 -24.75 3
    endloop
  endfacet
  facet normal 0 -0 1
    outer loop
      vertex -13.8839 -24.3839 3
      vertex -13.8839 -22.6161 3
      vertex -14.25 -23.5 3
    endloop
  endfacet
  facet normal 0 0 1
    outer loop
      vertex -12.1161 24.3839 3
      vertex -12.1161 22.6161 3
      vertex -11.75 23.5 3
    endloop
  endfacet
  facet normal 0 0 1
    outer loop
      vertex -13 24.75 3
      vertex -12.1161 22.6161 3
      vertex -12.1161 24.3839 3
    endloop
  endfacet
  facet normal 0 0 1
    outer loop
      vertex -13 24.75 3
      vertex -13 22.25 3
      vertex -12.1161 22.6161 3
    endloop
  endfacet
  facet normal -0 0 1
    outer loop
      vertex -13.8839 24.3839 3
      vertex -13 22.25 3
      vertex -13 24.75 3
    endloop
  endfacet
  facet normal 0 0 1
    outer loop
      vertex -13.8839 24.3839 3
      vertex -13.8839 22.6161 3
      vertex -13 22.25 3
    endloop
  endfacet
  facet normal 0 -0 1
    outer loop
      vertex -13.8839 22.6161 3
      vertex -13.8839 24.3839 3
      vertex -14.25 23.5 3
    endloop
  endfacet
  facet normal 0 0 1
    outer loop
      vertex 13.8839 -22.6161 3
      vertex 13.8839 -24.3839 3
      vertex 14.25 -23.5 3
    endloop
  endfacet
  facet normal 0 0 1
    outer loop
      vertex 13 -22.25 3
      vertex 13.8839 -24.3839 3
      vertex 13.8839 -22.6161 3
    endloop
  endfacet
  facet normal 0 0 1
    outer loop
      vertex 13 -22.25 3
      vertex 13 -24.75 3
      vertex 13.8839 -24.3839 3
    endloop
  endfacet
  facet normal -0 0 1
    outer loop
      vertex 12.1161 -22.6161 3
      vertex 13 -24.75 3
      vertex 13 -22.25 3
    endloop
  endfacet
  facet normal 0 0 1
    outer loop
      vertex 12.1161 -22.6161 3
      vertex 12.1161 -24.3839 3
      vertex 13 -24.75 3
    endloop
  endfacet
  facet normal 0 -0 1
    outer loop
      vertex 12.1161 -24.3839 3
      vertex 12.1161 -22.6161 3
      vertex 11.75 -23.5 3
    endloop
  endfacet
  facet normal 0 0 1
    outer loop
      vertex 13.8839 24.3839 3
      vertex 13.8839 22.6161 3
      vertex 14.25 23.5 3
    endloop
  endfacet
  facet normal 0 0 1
    outer loop
      vertex 13 24.75 3
      vertex 13.8839 22.6161 3
      vertex 13.8839 24.3839 3
    endloop
  endfacet
  facet normal 0 0 1
    outer loop
      vertex 13 24.75 3
      vertex 13 22.25 3
      vertex 13.8839 22.6161 3
    endloop
  endfacet
  facet normal -0 0 1
    outer loop
      vertex 12.1161 24.3839 3
      vertex 13 22.25 3
      vertex 13 24.75 3
    endloop
  endfacet
  facet normal 0 0 1
    outer loop
      vertex 12.1161 24.3839 3
      vertex 12.1161 22.6161 3
      vertex 13 22.25 3
    endloop
  endfacet
  facet normal 0 -0 1
    outer loop
      vertex 12.1161 22.6161 3
      vertex 12.1161 24.3839 3
      vertex 11.75 23.5 3
    endloop
  endfacet
  facet normal 1 0 0
    outer loop
      vertex -15 33.5 26
      vertex -15 23.5 3
      vertex -15 33.5 3
    endloop
  endfacet
  facet normal 1 0 0
    outer loop
      vertex -15 33.5 26
      vertex -15 -23.5 3
      vertex -15 23.5 3
    endloop
  endfacet
  facet normal 1 -0 0
    outer loop
      vertex -15 -33.5 26
      vertex -15 -23.5 3
      vertex -15 33.5 26
    endloop
  endfacet
  facet normal 1 0 0
    outer loop
      vertex -15 -23.5 3
      vertex -15 -33.5 26
      vertex -15 -33.5 3
    endloop
  endfacet
  facet normal 0 -1 0
    outer loop
      vertex 7 33.5 11.2647
      vertex 15 33.5 26
      vertex -15 33.5 26
    endloop
  endfacet
  facet normal 0 -1 0
    outer loop
      vertex 15 33.5 26
      vertex 7.97906 33.5 11.6211
      vertex 8.5 33.5 11.6667
    endloop
  endfacet
  facet normal 0 -1 0
    outer loop
      vertex 15 33.5 26
      vertex 7.47394 33.5 11.4857
      vertex 7.97906 33.5 11.6211
    endloop
  endfacet
  facet normal 0 -1 0
    outer loop
      vertex 15 33.5 26
      vertex 7 33.5 11.2647
      vertex 7.47394 33.5 11.4857
    endloop
  endfacet
  facet normal 0 -1 0
    outer loop
      vertex -15 33.5 26
      vertex 6.57164 33.5 10.9648
      vertex 7 33.5 11.2647
    endloop
  endfacet
  facet normal 0 -1 0
    outer loop
      vertex -15 33.5 26
      vertex 6.20187 33.5 10.595
      vertex 6.57164 33.5 10.9648
    endloop
  endfacet
  facet normal 0 -1 0
    outer loop
      vertex -15 33.5 26
      vertex 5.90192 33.5 10.1667
      vertex 6.20187 33.5 10.595
    endloop
  endfacet
  facet normal 0 -1 0
    outer loop
      vertex -15 33.5 26
      vertex 5.68092 33.5 9.69273
      vertex 5.90192 33.5 10.1667
    endloop
  endfacet
  facet normal 0 -1 0
    outer loop
      vertex -15 33.5 3
      vertex 5.68092 33.5 9.69273
      vertex -15 33.5 26
    endloop
  endfacet
  facet normal 0 -1 0
    outer loop
      vertex 5.68092 33.5 9.69273
      vertex -15 33.5 3
      vertex 5.54558 33.5 9.18761
    endloop
  endfacet
  facet normal 0 -1 0
    outer loop
      vertex 5.54558 33.5 9.18761
      vertex -15 33.5 3
      vertex 5.5 33.5 8.66667
    endloop
  endfacet
  facet normal 0 -1 -0
    outer loop
      vertex 5.5 33.5 8.66667
      vertex -15 33.5 3
      vertex 5.54558 33.5 8.14572
    endloop
  endfacet
  facet normal 0 -1 -0
    outer loop
      vertex 5.54558 33.5 8.14572
      vertex -15 33.5 3
      vertex 5.68092 33.5 7.64061
    endloop
  endfacet
  facet normal 0 -1 -0
    outer loop
      vertex 5.68092 33.5 7.64061
      vertex -15 33.5 3
      vertex 5.90192 33.5 7.16667
    endloop
  endfacet
  facet normal 0 -1 -0
    outer loop
      vertex 5.90192 33.5 7.16667
      vertex -15 33.5 3
      vertex 6.20187 33.5 6.7383
    endloop
  endfacet
  facet normal 0 -1 0
    outer loop
      vertex 15 33.5 3
      vertex 7.97906 33.5 5.71224
      vertex -15 33.5 3
    endloop
  endfacet
  facet normal 0 -1 -0
    outer loop
      vertex 7.47394 33.5 5.84759
      vertex -15 33.5 3
      vertex 7.97906 33.5 5.71224
    endloop
  endfacet
  facet normal 0 -1 -0
    outer loop
      vertex 7 33.5 6.06859
      vertex -15 33.5 3
      vertex 7.47394 33.5 5.84759
    endloop
  endfacet
  facet normal 0 -1 -0
    outer loop
      vertex 6.57164 33.5 6.36853
      vertex -15 33.5 3
      vertex 7 33.5 6.06859
    endloop
  endfacet
  facet normal 0 -1 -0
    outer loop
      vertex 6.20187 33.5 6.7383
      vertex -15 33.5 3
      vertex 6.57164 33.5 6.36853
    endloop
  endfacet
  facet normal 0 -1 0
    outer loop
      vertex 9.02094 33.5 11.6211
      vertex 15 33.5 26
      vertex 8.5 33.5 11.6667
    endloop
  endfacet
  facet normal 0 -1 0
    outer loop
      vertex 9.52606 33.5 11.4857
      vertex 15 33.5 26
      vertex 9.02094 33.5 11.6211
    endloop
  endfacet
  facet normal 0 -1 0
    outer loop
      vertex 10 33.5 11.2647
      vertex 15 33.5 26
      vertex 9.52606 33.5 11.4857
    endloop
  endfacet
  facet normal 0 -1 0
    outer loop
      vertex 10.4284 33.5 10.9648
      vertex 15 33.5 26
      vertex 10 33.5 11.2647
    endloop
  endfacet
  facet normal 0 -1 0
    outer loop
      vertex 10.7981 33.5 10.595
      vertex 15 33.5 26
      vertex 10.4284 33.5 10.9648
    endloop
  endfacet
  facet normal 0 -1 0
    outer loop
      vertex 11.0981 33.5 10.1667
      vertex 15 33.5 26
      vertex 10.7981 33.5 10.595
    endloop
  endfacet
  facet normal 0 -1 0
    outer loop
      vertex 11.3191 33.5 9.69273
      vertex 15 33.5 26
      vertex 11.0981 33.5 10.1667
    endloop
  endfacet
  facet normal 0 -1 0
    outer loop
      vertex 15 33.5 3
      vertex 11.3191 33.5 9.69273
      vertex 11.4544 33.5 9.18761
    endloop
  endfacet
  facet normal 0 -1 0
    outer loop
      vertex 15 33.5 3
      vertex 11.4544 33.5 9.18761
      vertex 11.5 33.5 8.66667
    endloop
  endfacet
  facet normal 0 -1 0
    outer loop
      vertex 15 33.5 3
      vertex 11.5 33.5 8.66667
      vertex 11.4544 33.5 8.14572
    endloop
  endfacet
  facet normal 0 -1 0
    outer loop
      vertex 7.97906 33.5 5.71224
      vertex 15 33.5 3
      vertex 8.5 33.5 5.66667
    endloop
  endfacet
  facet normal 0 -1 0
    outer loop
      vertex 11.3191 33.5 9.69273
      vertex 15 33.5 3
      vertex 15 33.5 26
    endloop
  endfacet
  facet normal 0 -1 0
    outer loop
      vertex 11.3191 33.5 7.64061
      vertex 15 33.5 3
      vertex 11.4544 33.5 8.14572
    endloop
  endfacet
  facet normal 0 -1 0
    outer loop
      vertex 11.0981 33.5 7.16667
      vertex 15 33.5 3
      vertex 11.3191 33.5 7.64061
    endloop
  endfacet
  facet normal 0 -1 0
    outer loop
      vertex 10.7981 33.5 6.7383
      vertex 15 33.5 3
      vertex 11.0981 33.5 7.16667
    endloop
  endfacet
  facet normal 0 -1 0
    outer loop
      vertex 10.4284 33.5 6.36853
      vertex 15 33.5 3
      vertex 10.7981 33.5 6.7383
    endloop
  endfacet
  facet normal 0 -1 0
    outer loop
      vertex 10 33.5 6.06859
      vertex 15 33.5 3
      vertex 10.4284 33.5 6.36853
    endloop
  endfacet
  facet normal 0 -1 0
    outer loop
      vertex 9.52606 33.5 5.84759
      vertex 15 33.5 3
      vertex 10 33.5 6.06859
    endloop
  endfacet
  facet normal 0 -1 0
    outer loop
      vertex 9.02094 33.5 5.71224
      vertex 15 33.5 3
      vertex 9.52606 33.5 5.84759
    endloop
  endfacet
  facet normal 0 -1 0
    outer loop
      vertex 8.5 33.5 5.66667
      vertex 15 33.5 3
      vertex 9.02094 33.5 5.71224
    endloop
  endfacet
  facet normal -1 0 0
    outer loop
      vertex 15 23.5 3
      vertex 15 33.5 26
      vertex 15 33.5 3
    endloop
  endfacet
  facet normal -1 0 0
    outer loop
      vertex 15 -23.5 3
      vertex 15 33.5 26
      vertex 15 23.5 3
    endloop
  endfacet
  facet normal -1 0 0
    outer loop
      vertex 15 -33.5 26
      vertex 15 -23.5 3
      vertex 15 -33.5 3
    endloop
  endfacet
  facet normal -1 0 0
    outer loop
      vertex 15 -23.5 3
      vertex 15 -33.5 26
      vertex 15 33.5 26
    endloop
  endfacet
  facet normal 0 1 -0
    outer loop
      vertex 15 -33.5 3
      vertex -15 -33.5 26
      vertex 15 -33.5 26
    endloop
  endfacet
  facet normal 0 1 0
    outer loop
      vertex -15 -33.5 26
      vertex 15 -33.5 3
      vertex -15 -33.5 3
    endloop
  endfacet
  facet normal -0.965948 0 -0.258736
    outer loop
      vertex 11.4544 33.5 9.18761
      vertex 11.3191 35.5 9.69273
      vertex 11.4544 35.5 9.18761
    endloop
  endfacet
  facet normal -0.965948 -0 -0.258736
    outer loop
      vertex 11.3191 35.5 9.69273
      vertex 11.4544 33.5 9.18761
      vertex 11.3191 33.5 9.69273
    endloop
  endfacet
  facet normal -0.996191 0 -0.0872006
    outer loop
      vertex 11.5 33.5 8.66667
      vertex 11.4544 35.5 9.18761
      vertex 11.5 35.5 8.66667
    endloop
  endfacet
  facet normal -0.996191 -0 -0.0872006
    outer loop
      vertex 11.4544 35.5 9.18761
      vertex 11.5 33.5 8.66667
      vertex 11.4544 33.5 9.18761
    endloop
  endfacet
  facet normal 0.0872006 0 -0.996191
    outer loop
      vertex 7.97906 33.5 11.6211
      vertex 8.5 35.5 11.6667
      vertex 8.5 33.5 11.6667
    endloop
  endfacet
  facet normal 0.0872006 0 -0.996191
    outer loop
      vertex 8.5 35.5 11.6667
      vertex 7.97906 33.5 11.6211
      vertex 7.97906 35.5 11.6211
    endloop
  endfacet
  facet normal -0.819105 0 0.573643
    outer loop
      vertex 10.7981 33.5 6.7383
      vertex 11.0981 35.5 7.16667
      vertex 10.7981 35.5 6.7383
    endloop
  endfacet
  facet normal -0.819105 0 0.573643
    outer loop
      vertex 11.0981 35.5 7.16667
      vertex 10.7981 33.5 6.7383
      vertex 11.0981 33.5 7.16667
    endloop
  endfacet
  facet normal -0.819061 0 -0.573706
    outer loop
      vertex 11.0981 33.5 10.1667
      vertex 10.7981 35.5 10.595
      vertex 11.0981 35.5 10.1667
    endloop
  endfacet
  facet normal -0.819061 -0 -0.573706
    outer loop
      vertex 10.7981 35.5 10.595
      vertex 11.0981 33.5 10.1667
      vertex 10.7981 33.5 10.595
    endloop
  endfacet
  facet normal 0.258915 0 -0.9659
    outer loop
      vertex 7.47394 33.5 11.4857
      vertex 7.97906 35.5 11.6211
      vertex 7.97906 33.5 11.6211
    endloop
  endfacet
  facet normal 0.258915 0 -0.9659
    outer loop
      vertex 7.97906 35.5 11.6211
      vertex 7.47394 33.5 11.4857
      vertex 7.47394 35.5 11.4857
    endloop
  endfacet
  facet normal -0.573539 0 0.819178
    outer loop
      vertex 10 35.5 6.06859
      vertex 10.4284 33.5 6.36853
      vertex 10.4284 35.5 6.36853
    endloop
  endfacet
  facet normal -0.573539 0 0.819178
    outer loop
      vertex 10.4284 33.5 6.36853
      vertex 10 35.5 6.06859
      vertex 10 33.5 6.06859
    endloop
  endfacet
  facet normal -0.996191 0 0.087199
    outer loop
      vertex 11.4544 33.5 8.14572
      vertex 11.5 35.5 8.66667
      vertex 11.4544 35.5 8.14572
    endloop
  endfacet
  facet normal -0.996191 0 0.087199
    outer loop
      vertex 11.5 35.5 8.66667
      vertex 11.4544 33.5 8.14572
      vertex 11.5 33.5 8.66667
    endloop
  endfacet
  facet normal 0.422615 0 0.906309
    outer loop
      vertex 7 35.5 6.06859
      vertex 7.47394 33.5 5.84759
      vertex 7.47394 35.5 5.84759
    endloop
  endfacet
  facet normal 0.422615 0 0.906309
    outer loop
      vertex 7.47394 33.5 5.84759
      vertex 7 35.5 6.06859
      vertex 7 33.5 6.06859
    endloop
  endfacet
  facet normal -0.906319 0 -0.422593
    outer loop
      vertex 11.3191 33.5 9.69273
      vertex 11.0981 35.5 10.1667
      vertex 11.3191 35.5 9.69273
    endloop
  endfacet
  facet normal -0.906319 -0 -0.422593
    outer loop
      vertex 11.0981 35.5 10.1667
      vertex 11.3191 33.5 9.69273
      vertex 11.0981 33.5 10.1667
    endloop
  endfacet
  facet normal 0.707135 0 -0.707078
    outer loop
      vertex 6.57164 33.5 10.9648
      vertex 6.20187 35.5 10.595
      vertex 6.57164 35.5 10.9648
    endloop
  endfacet
  facet normal 0.707135 0 -0.707078
    outer loop
      vertex 6.20187 35.5 10.595
      vertex 6.57164 33.5 10.9648
      vertex 6.20187 33.5 10.595
    endloop
  endfacet
  facet normal -0.0872006 0 -0.996191
    outer loop
      vertex 8.5 33.5 11.6667
      vertex 9.02094 35.5 11.6211
      vertex 9.02094 33.5 11.6211
    endloop
  endfacet
  facet normal -0.0872006 0 -0.996191
    outer loop
      vertex 9.02094 35.5 11.6211
      vertex 8.5 33.5 11.6667
      vertex 8.5 35.5 11.6667
    endloop
  endfacet
  facet normal 0.906309 -0 0.422615
    outer loop
      vertex 5.68092 33.5 7.64061
      vertex 5.90192 35.5 7.16667
      vertex 5.68092 35.5 7.64061
    endloop
  endfacet
  facet normal 0.906309 0 0.422615
    outer loop
      vertex 5.90192 35.5 7.16667
      vertex 5.68092 33.5 7.64061
      vertex 5.90192 33.5 7.16667
    endloop
  endfacet
  facet normal -0.707174 0 0.70704
    outer loop
      vertex 10.4284 35.5 6.36853
      vertex 10.7981 33.5 6.7383
      vertex 10.7981 35.5 6.7383
    endloop
  endfacet
  facet normal -0.707174 0 0.70704
    outer loop
      vertex 10.7981 33.5 6.7383
      vertex 10.4284 35.5 6.36853
      vertex 10.4284 33.5 6.36853
    endloop
  endfacet
  facet normal 0.258825 0 0.965924
    outer loop
      vertex 7.47394 35.5 5.84759
      vertex 7.97906 33.5 5.71224
      vertex 7.97906 35.5 5.71224
    endloop
  endfacet
  facet normal 0.258825 0 0.965924
    outer loop
      vertex 7.97906 33.5 5.71224
      vertex 7.47394 35.5 5.84759
      vertex 7.47394 33.5 5.84759
    endloop
  endfacet
  facet normal -0.573488 0 -0.819214
    outer loop
      vertex 10 33.5 11.2647
      vertex 10.4284 35.5 10.9648
      vertex 10.4284 33.5 10.9648
    endloop
  endfacet
  facet normal -0.573488 0 -0.819214
    outer loop
      vertex 10.4284 35.5 10.9648
      vertex 10 33.5 11.2647
      vertex 10 35.5 11.2647
    endloop
  endfacet
  facet normal 0.573575 0 0.819153
    outer loop
      vertex 6.57164 35.5 6.36853
      vertex 7 33.5 6.06859
      vertex 7 35.5 6.06859
    endloop
  endfacet
  facet normal 0.573575 0 0.819153
    outer loop
      vertex 7 33.5 6.06859
      vertex 6.57164 35.5 6.36853
      vertex 6.57164 33.5 6.36853
    endloop
  endfacet
  facet normal 0.422615 0 -0.906309
    outer loop
      vertex 7 33.5 11.2647
      vertex 7.47394 35.5 11.4857
      vertex 7.47394 33.5 11.4857
    endloop
  endfacet
  facet normal 0.422615 0 -0.906309
    outer loop
      vertex 7.47394 35.5 11.4857
      vertex 7 33.5 11.2647
      vertex 7 35.5 11.2647
    endloop
  endfacet
  facet normal 0.996194 -0 0.087161
    outer loop
      vertex 5.5 33.5 8.66667
      vertex 5.54558 35.5 8.14572
      vertex 5.5 35.5 8.66667
    endloop
  endfacet
  facet normal 0.996194 0 0.087161
    outer loop
      vertex 5.54558 35.5 8.14572
      vertex 5.5 33.5 8.66667
      vertex 5.54558 33.5 8.14572
    endloop
  endfacet
  facet normal 0.965929 0 -0.258807
    outer loop
      vertex 5.68092 33.5 9.69273
      vertex 5.54558 35.5 9.18761
      vertex 5.68092 35.5 9.69273
    endloop
  endfacet
  facet normal 0.965929 0 -0.258807
    outer loop
      vertex 5.54558 35.5 9.18761
      vertex 5.68092 33.5 9.69273
      vertex 5.54558 33.5 9.18761
    endloop
  endfacet
  facet normal -0.906309 0 0.422615
    outer loop
      vertex 11.0981 33.5 7.16667
      vertex 11.3191 35.5 7.64061
      vertex 11.0981 35.5 7.16667
    endloop
  endfacet
  facet normal -0.906309 0 0.422615
    outer loop
      vertex 11.3191 35.5 7.64061
      vertex 11.0981 33.5 7.16667
      vertex 11.3191 33.5 7.64061
    endloop
  endfacet
  facet normal -0.965947 0 0.258741
    outer loop
      vertex 11.3191 33.5 7.64061
      vertex 11.4544 35.5 8.14572
      vertex 11.3191 35.5 7.64061
    endloop
  endfacet
  facet normal -0.965947 0 0.258741
    outer loop
      vertex 11.4544 35.5 8.14572
      vertex 11.3191 33.5 7.64061
      vertex 11.4544 33.5 8.14572
    endloop
  endfacet
  facet normal -0.422615 0 -0.906309
    outer loop
      vertex 9.52606 33.5 11.4857
      vertex 10 35.5 11.2647
      vertex 10 33.5 11.2647
    endloop
  endfacet
  facet normal -0.422615 0 -0.906309
    outer loop
      vertex 10 35.5 11.2647
      vertex 9.52606 33.5 11.4857
      vertex 9.52606 35.5 11.4857
    endloop
  endfacet
  facet normal 0.707107 0 0.707107
    outer loop
      vertex 6.20187 35.5 6.7383
      vertex 6.57164 33.5 6.36853
      vertex 6.57164 35.5 6.36853
    endloop
  endfacet
  facet normal 0.707107 0 0.707107
    outer loop
      vertex 6.57164 33.5 6.36853
      vertex 6.20187 35.5 6.7383
      vertex 6.20187 33.5 6.7383
    endloop
  endfacet
  facet normal -0.258825 0 0.965924
    outer loop
      vertex 9.02094 35.5 5.71224
      vertex 9.52606 33.5 5.84759
      vertex 9.52606 35.5 5.84759
    endloop
  endfacet
  facet normal -0.258825 0 0.965924
    outer loop
      vertex 9.52606 33.5 5.84759
      vertex 9.02094 35.5 5.71224
      vertex 9.02094 33.5 5.71224
    endloop
  endfacet
  facet normal -0.258915 0 -0.9659
    outer loop
      vertex 9.02094 33.5 11.6211
      vertex 9.52606 35.5 11.4857
      vertex 9.52606 33.5 11.4857
    endloop
  endfacet
  facet normal -0.258915 0 -0.9659
    outer loop
      vertex 9.52606 35.5 11.4857
      vertex 9.02094 33.5 11.6211
      vertex 9.02094 35.5 11.6211
    endloop
  endfacet
  facet normal -0.422615 0 0.906309
    outer loop
      vertex 9.52606 35.5 5.84759
      vertex 10 33.5 6.06859
      vertex 10 35.5 6.06859
    endloop
  endfacet
  facet normal -0.422615 0 0.906309
    outer loop
      vertex 10 33.5 6.06859
      vertex 9.52606 35.5 5.84759
      vertex 9.52606 33.5 5.84759
    endloop
  endfacet
  facet normal 0.573524 0 -0.819189
    outer loop
      vertex 6.57164 33.5 10.9648
      vertex 7 35.5 11.2647
      vertex 7 33.5 11.2647
    endloop
  endfacet
  facet normal 0.573524 0 -0.819189
    outer loop
      vertex 7 35.5 11.2647
      vertex 6.57164 33.5 10.9648
      vertex 6.57164 35.5 10.9648
    endloop
  endfacet
  facet normal 0.81915 -0 0.573579
    outer loop
      vertex 5.90192 33.5 7.16667
      vertex 6.20187 35.5 6.7383
      vertex 5.90192 35.5 7.16667
    endloop
  endfacet
  facet normal 0.81915 0 0.573579
    outer loop
      vertex 6.20187 35.5 6.7383
      vertex 5.90192 33.5 7.16667
      vertex 6.20187 33.5 6.7383
    endloop
  endfacet
  facet normal 0.0871437 0 0.996196
    outer loop
      vertex 7.97906 35.5 5.71224
      vertex 8.5 33.5 5.66667
      vertex 8.5 35.5 5.66667
    endloop
  endfacet
  facet normal 0.0871437 0 0.996196
    outer loop
      vertex 8.5 33.5 5.66667
      vertex 7.97906 35.5 5.71224
      vertex 7.97906 33.5 5.71224
    endloop
  endfacet
  facet normal 0.965928 -0 0.258812
    outer loop
      vertex 5.54558 33.5 8.14572
      vertex 5.68092 35.5 7.64061
      vertex 5.54558 35.5 8.14572
    endloop
  endfacet
  facet normal 0.965928 0 0.258812
    outer loop
      vertex 5.68092 35.5 7.64061
      vertex 5.54558 33.5 8.14572
      vertex 5.68092 33.5 7.64061
    endloop
  endfacet
  facet normal -0.707202 0 -0.707011
    outer loop
      vertex 10.7981 33.5 10.595
      vertex 10.4284 35.5 10.9648
      vertex 10.7981 35.5 10.595
    endloop
  endfacet
  facet normal -0.707202 -0 -0.707011
    outer loop
      vertex 10.4284 35.5 10.9648
      vertex 10.7981 33.5 10.595
      vertex 10.4284 33.5 10.9648
    endloop
  endfacet
  facet normal -0.0871437 0 0.996196
    outer loop
      vertex 8.5 35.5 5.66667
      vertex 9.02094 33.5 5.71224
      vertex 9.02094 35.5 5.71224
    endloop
  endfacet
  facet normal -0.0871437 0 0.996196
    outer loop
      vertex 9.02094 33.5 5.71224
      vertex 8.5 35.5 5.66667
      vertex 8.5 33.5 5.66667
    endloop
  endfacet
  facet normal 0.906319 0 -0.422593
    outer loop
      vertex 5.90192 33.5 10.1667
      vertex 5.68092 35.5 9.69273
      vertex 5.90192 35.5 10.1667
    endloop
  endfacet
  facet normal 0.906319 0 -0.422593
    outer loop
      vertex 5.68092 35.5 9.69273
      vertex 5.90192 33.5 10.1667
      vertex 5.68092 33.5 9.69273
    endloop
  endfacet
  facet normal 0.819106 0 -0.573642
    outer loop
      vertex 6.20187 33.5 10.595
      vertex 5.90192 35.5 10.1667
      vertex 6.20187 35.5 10.595
    endloop
  endfacet
  facet normal 0.819106 0 -0.573642
    outer loop
      vertex 5.90192 35.5 10.1667
      vertex 6.20187 33.5 10.595
      vertex 5.90192 33.5 10.1667
    endloop
  endfacet
  facet normal 0.996194 0 -0.0871627
    outer loop
      vertex 5.54558 33.5 9.18761
      vertex 5.5 35.5 8.66667
      vertex 5.54558 35.5 9.18761
    endloop
  endfacet
  facet normal 0.996194 0 -0.0871627
    outer loop
      vertex 5.5 35.5 8.66667
      vertex 5.54558 33.5 9.18761
      vertex 5.5 33.5 8.66667
    endloop
  endfacet
  facet normal -0.0871437 0 0.996196
    outer loop
      vertex -8.5 -34.5 5.66667
      vertex -7.97906 -35.5 5.71224
      vertex -7.97906 -34.5 5.71224
    endloop
  endfacet
  facet normal -0.0871437 0 0.996196
    outer loop
      vertex -7.97906 -35.5 5.71224
      vertex -8.5 -34.5 5.66667
      vertex -8.5 -35.5 5.66667
    endloop
  endfacet
  facet normal -0.996194 0 -0.0871627
    outer loop
      vertex -5.5 -35.5 8.66667
      vertex -5.54558 -34.5 9.18761
      vertex -5.5 -34.5 8.66667
    endloop
  endfacet
  facet normal -0.996194 -0 -0.0871627
    outer loop
      vertex -5.54558 -34.5 9.18761
      vertex -5.5 -35.5 8.66667
      vertex -5.54558 -35.5 9.18761
    endloop
  endfacet
  facet normal -0.258915 0 -0.9659
    outer loop
      vertex -7.97906 -35.5 11.6211
      vertex -7.47394 -34.5 11.4857
      vertex -7.47394 -35.5 11.4857
    endloop
  endfacet
  facet normal -0.258915 0 -0.9659
    outer loop
      vertex -7.47394 -34.5 11.4857
      vertex -7.97906 -35.5 11.6211
      vertex -7.97906 -34.5 11.6211
    endloop
  endfacet
  facet normal -0.573524 0 -0.819189
    outer loop
      vertex -7 -35.5 11.2647
      vertex -6.57164 -34.5 10.9648
      vertex -6.57164 -35.5 10.9648
    endloop
  endfacet
  facet normal -0.573524 0 -0.819189
    outer loop
      vertex -6.57164 -34.5 10.9648
      vertex -7 -35.5 11.2647
      vertex -7 -34.5 11.2647
    endloop
  endfacet
  facet normal 0.707202 0 -0.707011
    outer loop
      vertex -10.4284 -35.5 10.9648
      vertex -10.7981 -34.5 10.595
      vertex -10.4284 -34.5 10.9648
    endloop
  endfacet
  facet normal 0.707202 0 -0.707011
    outer loop
      vertex -10.7981 -34.5 10.595
      vertex -10.4284 -35.5 10.9648
      vertex -10.7981 -35.5 10.595
    endloop
  endfacet
  facet normal -0.707135 0 -0.707078
    outer loop
      vertex -6.20187 -35.5 10.595
      vertex -6.57164 -34.5 10.9648
      vertex -6.20187 -34.5 10.595
    endloop
  endfacet
  facet normal -0.707135 -0 -0.707078
    outer loop
      vertex -6.57164 -34.5 10.9648
      vertex -6.20187 -35.5 10.595
      vertex -6.57164 -35.5 10.9648
    endloop
  endfacet
  facet normal 0 -1 0
    outer loop
      vertex -9.02094 -34.5 11.6211
      vertex -7.97906 -34.5 11.6211
      vertex -8.5 -34.5 11.6667
    endloop
  endfacet
  facet normal 0 -1 0
    outer loop
      vertex -9.52606 -34.5 11.4857
      vertex -7.97906 -34.5 11.6211
      vertex -9.02094 -34.5 11.6211
    endloop
  endfacet
  facet normal 0 -1 0
    outer loop
      vertex -9.52606 -34.5 11.4857
      vertex -7.47394 -34.5 11.4857
      vertex -7.97906 -34.5 11.6211
    endloop
  endfacet
  facet normal 0 -1 0
    outer loop
      vertex -10 -34.5 11.2647
      vertex -7.47394 -34.5 11.4857
      vertex -9.52606 -34.5 11.4857
    endloop
  endfacet
  facet normal 0 -1 0
    outer loop
      vertex -10 -34.5 11.2647
      vertex -7 -34.5 11.2647
      vertex -7.47394 -34.5 11.4857
    endloop
  endfacet
  facet normal 0 -1 0
    outer loop
      vertex -10.4284 -34.5 10.9648
      vertex -7 -34.5 11.2647
      vertex -10 -34.5 11.2647
    endloop
  endfacet
  facet normal 0 -1 0
    outer loop
      vertex -10.4284 -34.5 10.9648
      vertex -6.57164 -34.5 10.9648
      vertex -7 -34.5 11.2647
    endloop
  endfacet
  facet normal 0 -1 0
    outer loop
      vertex -10.7981 -34.5 10.595
      vertex -6.57164 -34.5 10.9648
      vertex -10.4284 -34.5 10.9648
    endloop
  endfacet
  facet normal 0 -1 0
    outer loop
      vertex -10.7981 -34.5 10.595
      vertex -6.20187 -34.5 10.595
      vertex -6.57164 -34.5 10.9648
    endloop
  endfacet
  facet normal 0 -1 0
    outer loop
      vertex -11.0981 -34.5 10.1667
      vertex -6.20187 -34.5 10.595
      vertex -10.7981 -34.5 10.595
    endloop
  endfacet
  facet normal 0 -1 0
    outer loop
      vertex -11.0981 -34.5 10.1667
      vertex -5.90192 -34.5 10.1667
      vertex -6.20187 -34.5 10.595
    endloop
  endfacet
  facet normal 0 -1 0
    outer loop
      vertex -11.3191 -34.5 9.69273
      vertex -5.90192 -34.5 10.1667
      vertex -11.0981 -34.5 10.1667
    endloop
  endfacet
  facet normal 0 -1 0
    outer loop
      vertex -11.3191 -34.5 9.69273
      vertex -5.68092 -34.5 9.69273
      vertex -5.90192 -34.5 10.1667
    endloop
  endfacet
  facet normal 0 -1 0
    outer loop
      vertex -11.4544 -34.5 9.18761
      vertex -5.68092 -34.5 9.69273
      vertex -11.3191 -34.5 9.69273
    endloop
  endfacet
  facet normal 0 -1 0
    outer loop
      vertex -11.4544 -34.5 9.18761
      vertex -5.54558 -34.5 9.18761
      vertex -5.68092 -34.5 9.69273
    endloop
  endfacet
  facet normal 0 -1 0
    outer loop
      vertex -11.5 -34.5 8.66667
      vertex -5.54558 -34.5 9.18761
      vertex -11.4544 -34.5 9.18761
    endloop
  endfacet
  facet normal 0 -1 0
    outer loop
      vertex -11.5 -34.5 8.66667
      vertex -5.5 -34.5 8.66667
      vertex -5.54558 -34.5 9.18761
    endloop
  endfacet
  facet normal 0 -1 0
    outer loop
      vertex -11.4544 -34.5 8.14572
      vertex -5.5 -34.5 8.66667
      vertex -11.5 -34.5 8.66667
    endloop
  endfacet
  facet normal 0 -1 0
    outer loop
      vertex -11.4544 -34.5 8.14572
      vertex -5.54558 -34.5 8.14572
      vertex -5.5 -34.5 8.66667
    endloop
  endfacet
  facet normal 0 -1 0
    outer loop
      vertex -11.3191 -34.5 7.64061
      vertex -5.54558 -34.5 8.14572
      vertex -11.4544 -34.5 8.14572
    endloop
  endfacet
  facet normal 0 -1 0
    outer loop
      vertex -11.3191 -34.5 7.64061
      vertex -5.68092 -34.5 7.64061
      vertex -5.54558 -34.5 8.14572
    endloop
  endfacet
  facet normal 0 -1 0
    outer loop
      vertex -11.0981 -34.5 7.16667
      vertex -5.68092 -34.5 7.64061
      vertex -11.3191 -34.5 7.64061
    endloop
  endfacet
  facet normal 0 -1 0
    outer loop
      vertex -11.0981 -34.5 7.16667
      vertex -5.90192 -34.5 7.16667
      vertex -5.68092 -34.5 7.64061
    endloop
  endfacet
  facet normal 0 -1 0
    outer loop
      vertex -10.7981 -34.5 6.7383
      vertex -5.90192 -34.5 7.16667
      vertex -11.0981 -34.5 7.16667
    endloop
  endfacet
  facet normal 0 -1 0
    outer loop
      vertex -10.7981 -34.5 6.7383
      vertex -6.20187 -34.5 6.7383
      vertex -5.90192 -34.5 7.16667
    endloop
  endfacet
  facet normal 0 -1 0
    outer loop
      vertex -10.4284 -34.5 6.36853
      vertex -6.20187 -34.5 6.7383
      vertex -10.7981 -34.5 6.7383
    endloop
  endfacet
  facet normal 0 -1 0
    outer loop
      vertex -10.4284 -34.5 6.36853
      vertex -6.57164 -34.5 6.36853
      vertex -6.20187 -34.5 6.7383
    endloop
  endfacet
  facet normal 0 -1 0
    outer loop
      vertex -10 -34.5 6.06859
      vertex -6.57164 -34.5 6.36853
      vertex -10.4284 -34.5 6.36853
    endloop
  endfacet
  facet normal 0 -1 0
    outer loop
      vertex -10 -34.5 6.06859
      vertex -7 -34.5 6.06859
      vertex -6.57164 -34.5 6.36853
    endloop
  endfacet
  facet normal 0 -1 0
    outer loop
      vertex -9.52606 -34.5 5.84759
      vertex -7 -34.5 6.06859
      vertex -10 -34.5 6.06859
    endloop
  endfacet
  facet normal 0 -1 0
    outer loop
      vertex -9.52606 -34.5 5.84759
      vertex -7.47394 -34.5 5.84759
      vertex -7 -34.5 6.06859
    endloop
  endfacet
  facet normal 0 -1 0
    outer loop
      vertex -9.02094 -34.5 5.71224
      vertex -7.47394 -34.5 5.84759
      vertex -9.52606 -34.5 5.84759
    endloop
  endfacet
  facet normal 0 -1 0
    outer loop
      vertex -9.02094 -34.5 5.71224
      vertex -7.97906 -34.5 5.71224
      vertex -7.47394 -34.5 5.84759
    endloop
  endfacet
  facet normal -0 -1 0
    outer loop
      vertex -7.97906 -34.5 5.71224
      vertex -9.02094 -34.5 5.71224
      vertex -8.5 -34.5 5.66667
    endloop
  endfacet
  facet normal 0.965947 -0 0.258741
    outer loop
      vertex -11.4544 -35.5 8.14572
      vertex -11.3191 -34.5 7.64061
      vertex -11.4544 -34.5 8.14572
    endloop
  endfacet
  facet normal 0.965947 0 0.258741
    outer loop
      vertex -11.3191 -34.5 7.64061
      vertex -11.4544 -35.5 8.14572
      vertex -11.3191 -35.5 7.64061
    endloop
  endfacet
  facet normal -0.906319 0 -0.422593
    outer loop
      vertex -5.68092 -35.5 9.69273
      vertex -5.90192 -34.5 10.1667
      vertex -5.68092 -34.5 9.69273
    endloop
  endfacet
  facet normal -0.906319 -0 -0.422593
    outer loop
      vertex -5.90192 -34.5 10.1667
      vertex -5.68092 -35.5 9.69273
      vertex -5.90192 -35.5 10.1667
    endloop
  endfacet
  facet normal -0.258825 0 0.965924
    outer loop
      vertex -7.97906 -34.5 5.71224
      vertex -7.47394 -35.5 5.84759
      vertex -7.47394 -34.5 5.84759
    endloop
  endfacet
  facet normal -0.258825 0 0.965924
    outer loop
      vertex -7.47394 -35.5 5.84759
      vertex -7.97906 -34.5 5.71224
      vertex -7.97906 -35.5 5.71224
    endloop
  endfacet
  facet normal 0.906319 0 -0.422593
    outer loop
      vertex -11.0981 -35.5 10.1667
      vertex -11.3191 -34.5 9.69273
      vertex -11.0981 -34.5 10.1667
    endloop
  endfacet
  facet normal 0.906319 0 -0.422593
    outer loop
      vertex -11.3191 -34.5 9.69273
      vertex -11.0981 -35.5 10.1667
      vertex -11.3191 -35.5 9.69273
    endloop
  endfacet
  facet normal -0.81915 0 0.573579
    outer loop
      vertex -6.20187 -35.5 6.7383
      vertex -5.90192 -34.5 7.16667
      vertex -6.20187 -34.5 6.7383
    endloop
  endfacet
  facet normal -0.81915 0 0.573579
    outer loop
      vertex -5.90192 -34.5 7.16667
      vertex -6.20187 -35.5 6.7383
      vertex -5.90192 -35.5 7.16667
    endloop
  endfacet
  facet normal 0.573488 0 -0.819214
    outer loop
      vertex -10.4284 -35.5 10.9648
      vertex -10 -34.5 11.2647
      vertex -10 -35.5 11.2647
    endloop
  endfacet
  facet normal 0.573488 0 -0.819214
    outer loop
      vertex -10 -34.5 11.2647
      vertex -10.4284 -35.5 10.9648
      vertex -10.4284 -34.5 10.9648
    endloop
  endfacet
  facet normal 0.258915 0 -0.9659
    outer loop
      vertex -9.52606 -35.5 11.4857
      vertex -9.02094 -34.5 11.6211
      vertex -9.02094 -35.5 11.6211
    endloop
  endfacet
  facet normal 0.258915 0 -0.9659
    outer loop
      vertex -9.02094 -34.5 11.6211
      vertex -9.52606 -35.5 11.4857
      vertex -9.52606 -34.5 11.4857
    endloop
  endfacet
  facet normal 0.0872006 0 -0.996191
    outer loop
      vertex -9.02094 -35.5 11.6211
      vertex -8.5 -34.5 11.6667
      vertex -8.5 -35.5 11.6667
    endloop
  endfacet
  facet normal 0.0872006 0 -0.996191
    outer loop
      vertex -8.5 -34.5 11.6667
      vertex -9.02094 -35.5 11.6211
      vertex -9.02094 -34.5 11.6211
    endloop
  endfacet
  facet normal 0.707174 0 0.70704
    outer loop
      vertex -10.7981 -34.5 6.7383
      vertex -10.4284 -35.5 6.36853
      vertex -10.4284 -34.5 6.36853
    endloop
  endfacet
  facet normal 0.707174 0 0.70704
    outer loop
      vertex -10.4284 -35.5 6.36853
      vertex -10.7981 -34.5 6.7383
      vertex -10.7981 -35.5 6.7383
    endloop
  endfacet
  facet normal 0.573539 0 0.819178
    outer loop
      vertex -10.4284 -34.5 6.36853
      vertex -10 -35.5 6.06859
      vertex -10 -34.5 6.06859
    endloop
  endfacet
  facet normal 0.573539 0 0.819178
    outer loop
      vertex -10 -35.5 6.06859
      vertex -10.4284 -34.5 6.36853
      vertex -10.4284 -35.5 6.36853
    endloop
  endfacet
  facet normal -0.996194 0 0.087161
    outer loop
      vertex -5.54558 -35.5 8.14572
      vertex -5.5 -34.5 8.66667
      vertex -5.54558 -34.5 8.14572
    endloop
  endfacet
  facet normal -0.996194 0 0.087161
    outer loop
      vertex -5.5 -34.5 8.66667
      vertex -5.54558 -35.5 8.14572
      vertex -5.5 -35.5 8.66667
    endloop
  endfacet
  facet normal -0.965929 0 -0.258807
    outer loop
      vertex -5.54558 -35.5 9.18761
      vertex -5.68092 -34.5 9.69273
      vertex -5.54558 -34.5 9.18761
    endloop
  endfacet
  facet normal -0.965929 -0 -0.258807
    outer loop
      vertex -5.68092 -34.5 9.69273
      vertex -5.54558 -35.5 9.18761
      vertex -5.68092 -35.5 9.69273
    endloop
  endfacet
  facet normal 0.422615 0 -0.906309
    outer loop
      vertex -10 -35.5 11.2647
      vertex -9.52606 -34.5 11.4857
      vertex -9.52606 -35.5 11.4857
    endloop
  endfacet
  facet normal 0.422615 0 -0.906309
    outer loop
      vertex -9.52606 -34.5 11.4857
      vertex -10 -35.5 11.2647
      vertex -10 -34.5 11.2647
    endloop
  endfacet
  facet normal 0.965948 0 -0.258736
    outer loop
      vertex -11.3191 -35.5 9.69273
      vertex -11.4544 -34.5 9.18761
      vertex -11.3191 -34.5 9.69273
    endloop
  endfacet
  facet normal 0.965948 0 -0.258736
    outer loop
      vertex -11.4544 -34.5 9.18761
      vertex -11.3191 -35.5 9.69273
      vertex -11.4544 -35.5 9.18761
    endloop
  endfacet
  facet normal 0.996191 -0 0.087199
    outer loop
      vertex -11.5 -35.5 8.66667
      vertex -11.4544 -34.5 8.14572
      vertex -11.5 -34.5 8.66667
    endloop
  endfacet
  facet normal 0.996191 0 0.087199
    outer loop
      vertex -11.4544 -34.5 8.14572
      vertex -11.5 -35.5 8.66667
      vertex -11.4544 -35.5 8.14572
    endloop
  endfacet
  facet normal -0.422615 0 -0.906309
    outer loop
      vertex -7.47394 -35.5 11.4857
      vertex -7 -34.5 11.2647
      vertex -7 -35.5 11.2647
    endloop
  endfacet
  facet normal -0.422615 0 -0.906309
    outer loop
      vertex -7 -34.5 11.2647
      vertex -7.47394 -35.5 11.4857
      vertex -7.47394 -34.5 11.4857
    endloop
  endfacet
  facet normal 0.819061 0 -0.573706
    outer loop
      vertex -10.7981 -35.5 10.595
      vertex -11.0981 -34.5 10.1667
      vertex -10.7981 -34.5 10.595
    endloop
  endfacet
  facet normal 0.819061 0 -0.573706
    outer loop
      vertex -11.0981 -34.5 10.1667
      vertex -10.7981 -35.5 10.595
      vertex -11.0981 -35.5 10.1667
    endloop
  endfacet
  facet normal -0.819106 0 -0.573642
    outer loop
      vertex -5.90192 -35.5 10.1667
      vertex -6.20187 -34.5 10.595
      vertex -5.90192 -34.5 10.1667
    endloop
  endfacet
  facet normal -0.819106 -0 -0.573642
    outer loop
      vertex -6.20187 -34.5 10.595
      vertex -5.90192 -35.5 10.1667
      vertex -6.20187 -35.5 10.595
    endloop
  endfacet
  facet normal -0.573575 0 0.819153
    outer loop
      vertex -7 -34.5 6.06859
      vertex -6.57164 -35.5 6.36853
      vertex -6.57164 -34.5 6.36853
    endloop
  endfacet
  facet normal -0.573575 0 0.819153
    outer loop
      vertex -6.57164 -35.5 6.36853
      vertex -7 -34.5 6.06859
      vertex -7 -35.5 6.06859
    endloop
  endfacet
  facet normal 0.0871437 0 0.996196
    outer loop
      vertex -9.02094 -34.5 5.71224
      vertex -8.5 -35.5 5.66667
      vertex -8.5 -34.5 5.66667
    endloop
  endfacet
  facet normal 0.0871437 0 0.996196
    outer loop
      vertex -8.5 -35.5 5.66667
      vertex -9.02094 -34.5 5.71224
      vertex -9.02094 -35.5 5.71224
    endloop
  endfacet
  facet normal -0.422615 0 0.906309
    outer loop
      vertex -7.47394 -34.5 5.84759
      vertex -7 -35.5 6.06859
      vertex -7 -34.5 6.06859
    endloop
  endfacet
  facet normal -0.422615 0 0.906309
    outer loop
      vertex -7 -35.5 6.06859
      vertex -7.47394 -34.5 5.84759
      vertex -7.47394 -35.5 5.84759
    endloop
  endfacet
  facet normal -0.906309 0 0.422615
    outer loop
      vertex -5.90192 -35.5 7.16667
      vertex -5.68092 -34.5 7.64061
      vertex -5.90192 -34.5 7.16667
    endloop
  endfacet
  facet normal -0.906309 0 0.422615
    outer loop
      vertex -5.68092 -34.5 7.64061
      vertex -5.90192 -35.5 7.16667
      vertex -5.68092 -35.5 7.64061
    endloop
  endfacet
  facet normal 0.906309 -0 0.422615
    outer loop
      vertex -11.3191 -35.5 7.64061
      vertex -11.0981 -34.5 7.16667
      vertex -11.3191 -34.5 7.64061
    endloop
  endfacet
  facet normal 0.906309 0 0.422615
    outer loop
      vertex -11.0981 -34.5 7.16667
      vertex -11.3191 -35.5 7.64061
      vertex -11.0981 -35.5 7.16667
    endloop
  endfacet
  facet normal 0.819105 -0 0.573643
    outer loop
      vertex -11.0981 -35.5 7.16667
      vertex -10.7981 -34.5 6.7383
      vertex -11.0981 -34.5 7.16667
    endloop
  endfacet
  facet normal 0.819105 0 0.573643
    outer loop
      vertex -10.7981 -34.5 6.7383
      vertex -11.0981 -35.5 7.16667
      vertex -10.7981 -35.5 6.7383
    endloop
  endfacet
  facet normal -0.965928 0 0.258812
    outer loop
      vertex -5.68092 -35.5 7.64061
      vertex -5.54558 -34.5 8.14572
      vertex -5.68092 -34.5 7.64061
    endloop
  endfacet
  facet normal -0.965928 0 0.258812
    outer loop
      vertex -5.54558 -34.5 8.14572
      vertex -5.68092 -35.5 7.64061
      vertex -5.54558 -35.5 8.14572
    endloop
  endfacet
  facet normal -0.0872006 0 -0.996191
    outer loop
      vertex -8.5 -35.5 11.6667
      vertex -7.97906 -34.5 11.6211
      vertex -7.97906 -35.5 11.6211
    endloop
  endfacet
  facet normal -0.0872006 0 -0.996191
    outer loop
      vertex -7.97906 -34.5 11.6211
      vertex -8.5 -35.5 11.6667
      vertex -8.5 -34.5 11.6667
    endloop
  endfacet
  facet normal 0.422615 0 0.906309
    outer loop
      vertex -10 -34.5 6.06859
      vertex -9.52606 -35.5 5.84759
      vertex -9.52606 -34.5 5.84759
    endloop
  endfacet
  facet normal 0.422615 0 0.906309
    outer loop
      vertex -9.52606 -35.5 5.84759
      vertex -10 -34.5 6.06859
      vertex -10 -35.5 6.06859
    endloop
  endfacet
  facet normal -0.707107 0 0.707107
    outer loop
      vertex -6.57164 -34.5 6.36853
      vertex -6.20187 -35.5 6.7383
      vertex -6.20187 -34.5 6.7383
    endloop
  endfacet
  facet normal -0.707107 0 0.707107
    outer loop
      vertex -6.20187 -35.5 6.7383
      vertex -6.57164 -34.5 6.36853
      vertex -6.57164 -35.5 6.36853
    endloop
  endfacet
  facet normal 0.996191 0 -0.0872006
    outer loop
      vertex -11.4544 -35.5 9.18761
      vertex -11.5 -34.5 8.66667
      vertex -11.4544 -34.5 9.18761
    endloop
  endfacet
  facet normal 0.996191 0 -0.0872006
    outer loop
      vertex -11.5 -34.5 8.66667
      vertex -11.4544 -35.5 9.18761
      vertex -11.5 -35.5 8.66667
    endloop
  endfacet
  facet normal 0.258825 0 0.965924
    outer loop
      vertex -9.52606 -34.5 5.84759
      vertex -9.02094 -35.5 5.71224
      vertex -9.02094 -34.5 5.71224
    endloop
  endfacet
  facet normal 0.258825 0 0.965924
    outer loop
      vertex -9.02094 -35.5 5.71224
      vertex -9.52606 -34.5 5.84759
      vertex -9.52606 -35.5 5.84759
    endloop
  endfacet
  facet normal -0.923875 -0.382694 0
    outer loop
      vertex 11.5858 22.0858 3
      vertex 11 23.5 11
      vertex 11 23.5 3
    endloop
  endfacet
  facet normal -0.923875 -0.382694 0
    outer loop
      vertex 11 23.5 11
      vertex 11.5858 22.0858 3
      vertex 11.5858 22.0858 11
    endloop
  endfacet
  facet normal 0.382694 0.923875 -0
    outer loop
      vertex 14.4142 24.9142 3
      vertex 13 25.5 11
      vertex 14.4142 24.9142 11
    endloop
  endfacet
  facet normal 0.382694 0.923875 0
    outer loop
      vertex 13 25.5 11
      vertex 14.4142 24.9142 3
      vertex 13 25.5 3
    endloop
  endfacet
  facet normal 0.923875 0.382694 0
    outer loop
      vertex 15 23.5 11
      vertex 14.4142 24.9142 3
      vertex 14.4142 24.9142 11
    endloop
  endfacet
  facet normal 0.923875 0.382694 0
    outer loop
      vertex 14.4142 24.9142 3
      vertex 15 23.5 11
      vertex 15 23.5 3
    endloop
  endfacet
  facet normal 0.923875 -0.382694 0
    outer loop
      vertex 14.4142 22.0858 11
      vertex 15 23.5 3
      vertex 15 23.5 11
    endloop
  endfacet
  facet normal 0.923875 -0.382694 0
    outer loop
      vertex 15 23.5 3
      vertex 14.4142 22.0858 11
      vertex 14.4142 22.0858 3
    endloop
  endfacet
  facet normal -0.382694 -0.923875 0
    outer loop
      vertex 11.5858 22.0858 3
      vertex 13 21.5 11
      vertex 11.5858 22.0858 11
    endloop
  endfacet
  facet normal -0.382694 -0.923875 -0
    outer loop
      vertex 13 21.5 11
      vertex 11.5858 22.0858 3
      vertex 13 21.5 3
    endloop
  endfacet
  facet normal -0.923875 0.382694 0
    outer loop
      vertex 11 23.5 3
      vertex 11.5858 24.9142 11
      vertex 11.5858 24.9142 3
    endloop
  endfacet
  facet normal -0.923875 0.382694 0
    outer loop
      vertex 11.5858 24.9142 11
      vertex 11 23.5 3
      vertex 11 23.5 11
    endloop
  endfacet
  facet normal 0.382694 -0.923875 0
    outer loop
      vertex 13 21.5 3
      vertex 14.4142 22.0858 11
      vertex 13 21.5 11
    endloop
  endfacet
  facet normal 0.382694 -0.923875 0
    outer loop
      vertex 14.4142 22.0858 11
      vertex 13 21.5 3
      vertex 14.4142 22.0858 3
    endloop
  endfacet
  facet normal 0 0 1
    outer loop
      vertex 14.25 23.5 11
      vertex 15 23.5 11
      vertex 14.4142 24.9142 11
    endloop
  endfacet
  facet normal 0 0 1
    outer loop
      vertex 15 23.5 11
      vertex 14.25 23.5 11
      vertex 14.4142 22.0858 11
    endloop
  endfacet
  facet normal 0 0 1
    outer loop
      vertex 14.4142 24.9142 11
      vertex 13.8839 24.3839 11
      vertex 14.25 23.5 11
    endloop
  endfacet
  facet normal 0 0 1
    outer loop
      vertex 13 25.5 11
      vertex 13.8839 24.3839 11
      vertex 14.4142 24.9142 11
    endloop
  endfacet
  facet normal 0 0 1
    outer loop
      vertex 13 25.5 11
      vertex 13 24.75 11
      vertex 13.8839 24.3839 11
    endloop
  endfacet
  facet normal 0 0 1
    outer loop
      vertex 13 25.5 11
      vertex 12.1161 24.3839 11
      vertex 13 24.75 11
    endloop
  endfacet
  facet normal 0 0 1
    outer loop
      vertex 12.1161 24.3839 11
      vertex 11.5858 24.9142 11
      vertex 11.75 23.5 11
    endloop
  endfacet
  facet normal -0 0 1
    outer loop
      vertex 11.5858 24.9142 11
      vertex 12.1161 24.3839 11
      vertex 13 25.5 11
    endloop
  endfacet
  facet normal -0 0 1
    outer loop
      vertex 13.8839 22.6161 11
      vertex 14.4142 22.0858 11
      vertex 14.25 23.5 11
    endloop
  endfacet
  facet normal -0 0 1
    outer loop
      vertex 13 22.25 11
      vertex 14.4142 22.0858 11
      vertex 13.8839 22.6161 11
    endloop
  endfacet
  facet normal 0 0 1
    outer loop
      vertex 13 22.25 11
      vertex 13 21.5 11
      vertex 14.4142 22.0858 11
    endloop
  endfacet
  facet normal 0 0 1
    outer loop
      vertex 12.1161 22.6161 11
      vertex 13 21.5 11
      vertex 13 22.25 11
    endloop
  endfacet
  facet normal 0 0 1
    outer loop
      vertex 12.1161 22.6161 11
      vertex 11.5858 22.0858 11
      vertex 13 21.5 11
    endloop
  endfacet
  facet normal 0 0 1
    outer loop
      vertex 11.75 23.5 11
      vertex 11.5858 22.0858 11
      vertex 12.1161 22.6161 11
    endloop
  endfacet
  facet normal 0 0 1
    outer loop
      vertex 11 23.5 11
      vertex 11.75 23.5 11
      vertex 11.5858 24.9142 11
    endloop
  endfacet
  facet normal 0 0 1
    outer loop
      vertex 11.75 23.5 11
      vertex 11 23.5 11
      vertex 11.5858 22.0858 11
    endloop
  endfacet
  facet normal -0.382694 0.923875 0
    outer loop
      vertex 13 25.5 3
      vertex 11.5858 24.9142 11
      vertex 13 25.5 11
    endloop
  endfacet
  facet normal -0.382694 0.923875 0
    outer loop
      vertex 11.5858 24.9142 11
      vertex 13 25.5 3
      vertex 11.5858 24.9142 3
    endloop
  endfacet
  facet normal 0.923888 0.382663 0
    outer loop
      vertex 12.1161 22.6161 11
      vertex 11.75 23.5 3
      vertex 11.75 23.5 11
    endloop
  endfacet
  facet normal 0.923888 0.382663 0
    outer loop
      vertex 11.75 23.5 3
      vertex 12.1161 22.6161 11
      vertex 12.1161 22.6161 3
    endloop
  endfacet
  facet normal -0.382663 -0.923888 0
    outer loop
      vertex 13 24.75 3
      vertex 13.8839 24.3839 11
      vertex 13 24.75 11
    endloop
  endfacet
  facet normal -0.382663 -0.923888 -0
    outer loop
      vertex 13.8839 24.3839 11
      vertex 13 24.75 3
      vertex 13.8839 24.3839 3
    endloop
  endfacet
  facet normal -0.923888 -0.382663 0
    outer loop
      vertex 14.25 23.5 3
      vertex 13.8839 24.3839 11
      vertex 13.8839 24.3839 3
    endloop
  endfacet
  facet normal -0.923888 -0.382663 0
    outer loop
      vertex 13.8839 24.3839 11
      vertex 14.25 23.5 3
      vertex 14.25 23.5 11
    endloop
  endfacet
  facet normal -0.923888 0.382663 0
    outer loop
      vertex 13.8839 22.6161 3
      vertex 14.25 23.5 11
      vertex 14.25 23.5 3
    endloop
  endfacet
  facet normal -0.923888 0.382663 0
    outer loop
      vertex 14.25 23.5 11
      vertex 13.8839 22.6161 3
      vertex 13.8839 22.6161 11
    endloop
  endfacet
  facet normal 0.382663 0.923888 -0
    outer loop
      vertex 13 22.25 3
      vertex 12.1161 22.6161 11
      vertex 13 22.25 11
    endloop
  endfacet
  facet normal 0.382663 0.923888 0
    outer loop
      vertex 12.1161 22.6161 11
      vertex 13 22.25 3
      vertex 12.1161 22.6161 3
    endloop
  endfacet
  facet normal 0.382663 -0.923888 0
    outer loop
      vertex 12.1161 24.3839 3
      vertex 13 24.75 11
      vertex 12.1161 24.3839 11
    endloop
  endfacet
  facet normal 0.382663 -0.923888 0
    outer loop
      vertex 13 24.75 11
      vertex 12.1161 24.3839 3
      vertex 13 24.75 3
    endloop
  endfacet
  facet normal 0.923888 -0.382663 0
    outer loop
      vertex 11.75 23.5 11
      vertex 12.1161 24.3839 3
      vertex 12.1161 24.3839 11
    endloop
  endfacet
  facet normal 0.923888 -0.382663 0
    outer loop
      vertex 12.1161 24.3839 3
      vertex 11.75 23.5 11
      vertex 11.75 23.5 3
    endloop
  endfacet
  facet normal -0.382663 0.923888 0
    outer loop
      vertex 13.8839 22.6161 3
      vertex 13 22.25 11
      vertex 13.8839 22.6161 11
    endloop
  endfacet
  facet normal -0.382663 0.923888 0
    outer loop
      vertex 13 22.25 11
      vertex 13.8839 22.6161 3
      vertex 13 22.25 3
    endloop
  endfacet
  facet normal -0.923875 -0.382694 0
    outer loop
      vertex 11.5858 -24.9142 3
      vertex 11 -23.5 11
      vertex 11 -23.5 3
    endloop
  endfacet
  facet normal -0.923875 -0.382694 0
    outer loop
      vertex 11 -23.5 11
      vertex 11.5858 -24.9142 3
      vertex 11.5858 -24.9142 11
    endloop
  endfacet
  facet normal 0.382694 0.923875 -0
    outer loop
      vertex 14.4142 -22.0858 3
      vertex 13 -21.5 11
      vertex 14.4142 -22.0858 11
    endloop
  endfacet
  facet normal 0.382694 0.923875 0
    outer loop
      vertex 13 -21.5 11
      vertex 14.4142 -22.0858 3
      vertex 13 -21.5 3
    endloop
  endfacet
  facet normal 0.923875 0.382694 0
    outer loop
      vertex 15 -23.5 11
      vertex 14.4142 -22.0858 3
      vertex 14.4142 -22.0858 11
    endloop
  endfacet
  facet normal 0.923875 0.382694 0
    outer loop
      vertex 14.4142 -22.0858 3
      vertex 15 -23.5 11
      vertex 15 -23.5 3
    endloop
  endfacet
  facet normal 0.923875 -0.382694 0
    outer loop
      vertex 14.4142 -24.9142 11
      vertex 15 -23.5 3
      vertex 15 -23.5 11
    endloop
  endfacet
  facet normal 0.923875 -0.382694 0
    outer loop
      vertex 15 -23.5 3
      vertex 14.4142 -24.9142 11
      vertex 14.4142 -24.9142 3
    endloop
  endfacet
  facet normal -0.382694 -0.923875 0
    outer loop
      vertex 11.5858 -24.9142 3
      vertex 13 -25.5 11
      vertex 11.5858 -24.9142 11
    endloop
  endfacet
  facet normal -0.382694 -0.923875 -0
    outer loop
      vertex 13 -25.5 11
      vertex 11.5858 -24.9142 3
      vertex 13 -25.5 3
    endloop
  endfacet
  facet normal -0.923875 0.382694 0
    outer loop
      vertex 11 -23.5 3
      vertex 11.5858 -22.0858 11
      vertex 11.5858 -22.0858 3
    endloop
  endfacet
  facet normal -0.923875 0.382694 0
    outer loop
      vertex 11.5858 -22.0858 11
      vertex 11 -23.5 3
      vertex 11 -23.5 11
    endloop
  endfacet
  facet normal 0.382694 -0.923875 0
    outer loop
      vertex 13 -25.5 3
      vertex 14.4142 -24.9142 11
      vertex 13 -25.5 11
    endloop
  endfacet
  facet normal 0.382694 -0.923875 0
    outer loop
      vertex 14.4142 -24.9142 11
      vertex 13 -25.5 3
      vertex 14.4142 -24.9142 3
    endloop
  endfacet
  facet normal 0 0 1
    outer loop
      vertex 14.25 -23.5 11
      vertex 15 -23.5 11
      vertex 14.4142 -22.0858 11
    endloop
  endfacet
  facet normal 0 0 1
    outer loop
      vertex 15 -23.5 11
      vertex 14.25 -23.5 11
      vertex 14.4142 -24.9142 11
    endloop
  endfacet
  facet normal 0 0 1
    outer loop
      vertex 14.4142 -22.0858 11
      vertex 13.8839 -22.6161 11
      vertex 14.25 -23.5 11
    endloop
  endfacet
  facet normal 0 0 1
    outer loop
      vertex 13 -21.5 11
      vertex 13.8839 -22.6161 11
      vertex 14.4142 -22.0858 11
    endloop
  endfacet
  facet normal 0 0 1
    outer loop
      vertex 13 -21.5 11
      vertex 13 -22.25 11
      vertex 13.8839 -22.6161 11
    endloop
  endfacet
  facet normal 0 0 1
    outer loop
      vertex 13 -21.5 11
      vertex 12.1161 -22.6161 11
      vertex 13 -22.25 11
    endloop
  endfacet
  facet normal 0 0 1
    outer loop
      vertex 12.1161 -22.6161 11
      vertex 11.5858 -22.0858 11
      vertex 11.75 -23.5 11
    endloop
  endfacet
  facet normal -0 0 1
    outer loop
      vertex 11.5858 -22.0858 11
      vertex 12.1161 -22.6161 11
      vertex 13 -21.5 11
    endloop
  endfacet
  facet normal -0 0 1
    outer loop
      vertex 13.8839 -24.3839 11
      vertex 14.4142 -24.9142 11
      vertex 14.25 -23.5 11
    endloop
  endfacet
  facet normal -0 0 1
    outer loop
      vertex 13 -24.75 11
      vertex 14.4142 -24.9142 11
      vertex 13.8839 -24.3839 11
    endloop
  endfacet
  facet normal 0 0 1
    outer loop
      vertex 13 -24.75 11
      vertex 13 -25.5 11
      vertex 14.4142 -24.9142 11
    endloop
  endfacet
  facet normal 0 0 1
    outer loop
      vertex 12.1161 -24.3839 11
      vertex 13 -25.5 11
      vertex 13 -24.75 11
    endloop
  endfacet
  facet normal 0 0 1
    outer loop
      vertex 12.1161 -24.3839 11
      vertex 11.5858 -24.9142 11
      vertex 13 -25.5 11
    endloop
  endfacet
  facet normal 0 0 1
    outer loop
      vertex 11.75 -23.5 11
      vertex 11.5858 -24.9142 11
      vertex 12.1161 -24.3839 11
    endloop
  endfacet
  facet normal 0 0 1
    outer loop
      vertex 11 -23.5 11
      vertex 11.75 -23.5 11
      vertex 11.5858 -22.0858 11
    endloop
  endfacet
  facet normal 0 0 1
    outer loop
      vertex 11.75 -23.5 11
      vertex 11 -23.5 11
      vertex 11.5858 -24.9142 11
    endloop
  endfacet
  facet normal -0.382694 0.923875 0
    outer loop
      vertex 13 -21.5 3
      vertex 11.5858 -22.0858 11
      vertex 13 -21.5 11
    endloop
  endfacet
  facet normal -0.382694 0.923875 0
    outer loop
      vertex 11.5858 -22.0858 11
      vertex 13 -21.5 3
      vertex 11.5858 -22.0858 3
    endloop
  endfacet
  facet normal 0.923888 0.382663 0
    outer loop
      vertex 12.1161 -24.3839 11
      vertex 11.75 -23.5 3
      vertex 11.75 -23.5 11
    endloop
  endfacet
  facet normal 0.923888 0.382663 0
    outer loop
      vertex 11.75 -23.5 3
      vertex 12.1161 -24.3839 11
      vertex 12.1161 -24.3839 3
    endloop
  endfacet
  facet normal -0.382663 -0.923888 0
    outer loop
      vertex 13 -22.25 3
      vertex 13.8839 -22.6161 11
      vertex 13 -22.25 11
    endloop
  endfacet
  facet normal -0.382663 -0.923888 -0
    outer loop
      vertex 13.8839 -22.6161 11
      vertex 13 -22.25 3
      vertex 13.8839 -22.6161 3
    endloop
  endfacet
  facet normal -0.923888 -0.382663 0
    outer loop
      vertex 14.25 -23.5 3
      vertex 13.8839 -22.6161 11
      vertex 13.8839 -22.6161 3
    endloop
  endfacet
  facet normal -0.923888 -0.382663 0
    outer loop
      vertex 13.8839 -22.6161 11
      vertex 14.25 -23.5 3
      vertex 14.25 -23.5 11
    endloop
  endfacet
  facet normal -0.923888 0.382663 0
    outer loop
      vertex 13.8839 -24.3839 3
      vertex 14.25 -23.5 11
      vertex 14.25 -23.5 3
    endloop
  endfacet
  facet normal -0.923888 0.382663 0
    outer loop
      vertex 14.25 -23.5 11
      vertex 13.8839 -24.3839 3
      vertex 13.8839 -24.3839 11
    endloop
  endfacet
  facet normal 0.382663 0.923888 -0
    outer loop
      vertex 13 -24.75 3
      vertex 12.1161 -24.3839 11
      vertex 13 -24.75 11
    endloop
  endfacet
  facet normal 0.382663 0.923888 0
    outer loop
      vertex 12.1161 -24.3839 11
      vertex 13 -24.75 3
      vertex 12.1161 -24.3839 3
    endloop
  endfacet
  facet normal 0.382663 -0.923888 0
    outer loop
      vertex 12.1161 -22.6161 3
      vertex 13 -22.25 11
      vertex 12.1161 -22.6161 11
    endloop
  endfacet
  facet normal 0.382663 -0.923888 0
    outer loop
      vertex 13 -22.25 11
      vertex 12.1161 -22.6161 3
      vertex 13 -22.25 3
    endloop
  endfacet
  facet normal 0.923888 -0.382663 0
    outer loop
      vertex 11.75 -23.5 11
      vertex 12.1161 -22.6161 3
      vertex 12.1161 -22.6161 11
    endloop
  endfacet
  facet normal 0.923888 -0.382663 0
    outer loop
      vertex 12.1161 -22.6161 3
      vertex 11.75 -23.5 11
      vertex 11.75 -23.5 3
    endloop
  endfacet
  facet normal -0.382663 0.923888 0
    outer loop
      vertex 13.8839 -24.3839 3
      vertex 13 -24.75 11
      vertex 13.8839 -24.3839 11
    endloop
  endfacet
  facet normal -0.382663 0.923888 0
    outer loop
      vertex 13 -24.75 11
      vertex 13.8839 -24.3839 3
      vertex 13 -24.75 3
    endloop
  endfacet
  facet normal -0.923875 -0.382694 0
    outer loop
      vertex -14.4142 22.0858 3
      vertex -15 23.5 11
      vertex -15 23.5 3
    endloop
  endfacet
  facet normal -0.923875 -0.382694 0
    outer loop
      vertex -15 23.5 11
      vertex -14.4142 22.0858 3
      vertex -14.4142 22.0858 11
    endloop
  endfacet
  facet normal 0.382694 0.923875 -0
    outer loop
      vertex -11.5858 24.9142 3
      vertex -13 25.5 11
      vertex -11.5858 24.9142 11
    endloop
  endfacet
  facet normal 0.382694 0.923875 0
    outer loop
      vertex -13 25.5 11
      vertex -11.5858 24.9142 3
      vertex -13 25.5 3
    endloop
  endfacet
  facet normal 0.923875 0.382694 0
    outer loop
      vertex -11 23.5 11
      vertex -11.5858 24.9142 3
      vertex -11.5858 24.9142 11
    endloop
  endfacet
  facet normal 0.923875 0.382694 0
    outer loop
      vertex -11.5858 24.9142 3
      vertex -11 23.5 11
      vertex -11 23.5 3
    endloop
  endfacet
  facet normal 0.923875 -0.382694 0
    outer loop
      vertex -11.5858 22.0858 11
      vertex -11 23.5 3
      vertex -11 23.5 11
    endloop
  endfacet
  facet normal 0.923875 -0.382694 0
    outer loop
      vertex -11 23.5 3
      vertex -11.5858 22.0858 11
      vertex -11.5858 22.0858 3
    endloop
  endfacet
  facet normal -0.382694 -0.923875 0
    outer loop
      vertex -14.4142 22.0858 3
      vertex -13 21.5 11
      vertex -14.4142 22.0858 11
    endloop
  endfacet
  facet normal -0.382694 -0.923875 -0
    outer loop
      vertex -13 21.5 11
      vertex -14.4142 22.0858 3
      vertex -13 21.5 3
    endloop
  endfacet
  facet normal -0.923875 0.382694 0
    outer loop
      vertex -15 23.5 3
      vertex -14.4142 24.9142 11
      vertex -14.4142 24.9142 3
    endloop
  endfacet
  facet normal -0.923875 0.382694 0
    outer loop
      vertex -14.4142 24.9142 11
      vertex -15 23.5 3
      vertex -15 23.5 11
    endloop
  endfacet
  facet normal 0.382694 -0.923875 0
    outer loop
      vertex -13 21.5 3
      vertex -11.5858 22.0858 11
      vertex -13 21.5 11
    endloop
  endfacet
  facet normal 0.382694 -0.923875 0
    outer loop
      vertex -11.5858 22.0858 11
      vertex -13 21.5 3
      vertex -11.5858 22.0858 3
    endloop
  endfacet
  facet normal 0 0 1
    outer loop
      vertex -11.75 23.5 11
      vertex -11 23.5 11
      vertex -11.5858 24.9142 11
    endloop
  endfacet
  facet normal 0 0 1
    outer loop
      vertex -11 23.5 11
      vertex -11.75 23.5 11
      vertex -11.5858 22.0858 11
    endloop
  endfacet
  facet normal 0 0 1
    outer loop
      vertex -11.5858 24.9142 11
      vertex -12.1161 24.3839 11
      vertex -11.75 23.5 11
    endloop
  endfacet
  facet normal 0 0 1
    outer loop
      vertex -13 25.5 11
      vertex -12.1161 24.3839 11
      vertex -11.5858 24.9142 11
    endloop
  endfacet
  facet normal 0 0 1
    outer loop
      vertex -13 25.5 11
      vertex -13 24.75 11
      vertex -12.1161 24.3839 11
    endloop
  endfacet
  facet normal 0 0 1
    outer loop
      vertex -13 25.5 11
      vertex -13.8839 24.3839 11
      vertex -13 24.75 11
    endloop
  endfacet
  facet normal 0 0 1
    outer loop
      vertex -13.8839 24.3839 11
      vertex -14.4142 24.9142 11
      vertex -14.25 23.5 11
    endloop
  endfacet
  facet normal -0 0 1
    outer loop
      vertex -14.4142 24.9142 11
      vertex -13.8839 24.3839 11
      vertex -13 25.5 11
    endloop
  endfacet
  facet normal -0 0 1
    outer loop
      vertex -12.1161 22.6161 11
      vertex -11.5858 22.0858 11
      vertex -11.75 23.5 11
    endloop
  endfacet
  facet normal -0 0 1
    outer loop
      vertex -13 22.25 11
      vertex -11.5858 22.0858 11
      vertex -12.1161 22.6161 11
    endloop
  endfacet
  facet normal 0 0 1
    outer loop
      vertex -13 22.25 11
      vertex -13 21.5 11
      vertex -11.5858 22.0858 11
    endloop
  endfacet
  facet normal 0 0 1
    outer loop
      vertex -13.8839 22.6161 11
      vertex -13 21.5 11
      vertex -13 22.25 11
    endloop
  endfacet
  facet normal 0 0 1
    outer loop
      vertex -13.8839 22.6161 11
      vertex -14.4142 22.0858 11
      vertex -13 21.5 11
    endloop
  endfacet
  facet normal 0 0 1
    outer loop
      vertex -14.25 23.5 11
      vertex -14.4142 22.0858 11
      vertex -13.8839 22.6161 11
    endloop
  endfacet
  facet normal 0 0 1
    outer loop
      vertex -15 23.5 11
      vertex -14.25 23.5 11
      vertex -14.4142 24.9142 11
    endloop
  endfacet
  facet normal 0 0 1
    outer loop
      vertex -14.25 23.5 11
      vertex -15 23.5 11
      vertex -14.4142 22.0858 11
    endloop
  endfacet
  facet normal -0.382694 0.923875 0
    outer loop
      vertex -13 25.5 3
      vertex -14.4142 24.9142 11
      vertex -13 25.5 11
    endloop
  endfacet
  facet normal -0.382694 0.923875 0
    outer loop
      vertex -14.4142 24.9142 11
      vertex -13 25.5 3
      vertex -14.4142 24.9142 3
    endloop
  endfacet
  facet normal 0.923888 0.382663 0
    outer loop
      vertex -13.8839 22.6161 11
      vertex -14.25 23.5 3
      vertex -14.25 23.5 11
    endloop
  endfacet
  facet normal 0.923888 0.382663 0
    outer loop
      vertex -14.25 23.5 3
      vertex -13.8839 22.6161 11
      vertex -13.8839 22.6161 3
    endloop
  endfacet
  facet normal -0.382663 -0.923888 0
    outer loop
      vertex -13 24.75 3
      vertex -12.1161 24.3839 11
      vertex -13 24.75 11
    endloop
  endfacet
  facet normal -0.382663 -0.923888 -0
    outer loop
      vertex -12.1161 24.3839 11
      vertex -13 24.75 3
      vertex -12.1161 24.3839 3
    endloop
  endfacet
  facet normal -0.923888 -0.382663 0
    outer loop
      vertex -11.75 23.5 3
      vertex -12.1161 24.3839 11
      vertex -12.1161 24.3839 3
    endloop
  endfacet
  facet normal -0.923888 -0.382663 0
    outer loop
      vertex -12.1161 24.3839 11
      vertex -11.75 23.5 3
      vertex -11.75 23.5 11
    endloop
  endfacet
  facet normal -0.923888 0.382663 0
    outer loop
      vertex -12.1161 22.6161 3
      vertex -11.75 23.5 11
      vertex -11.75 23.5 3
    endloop
  endfacet
  facet normal -0.923888 0.382663 0
    outer loop
      vertex -11.75 23.5 11
      vertex -12.1161 22.6161 3
      vertex -12.1161 22.6161 11
    endloop
  endfacet
  facet normal 0.382663 0.923888 -0
    outer loop
      vertex -13 22.25 3
      vertex -13.8839 22.6161 11
      vertex -13 22.25 11
    endloop
  endfacet
  facet normal 0.382663 0.923888 0
    outer loop
      vertex -13.8839 22.6161 11
      vertex -13 22.25 3
      vertex -13.8839 22.6161 3
    endloop
  endfacet
  facet normal 0.382663 -0.923888 0
    outer loop
      vertex -13.8839 24.3839 3
      vertex -13 24.75 11
      vertex -13.8839 24.3839 11
    endloop
  endfacet
  facet normal 0.382663 -0.923888 0
    outer loop
      vertex -13 24.75 11
      vertex -13.8839 24.3839 3
      vertex -13 24.75 3
    endloop
  endfacet
  facet normal 0.923888 -0.382663 0
    outer loop
      vertex -14.25 23.5 11
      vertex -13.8839 24.3839 3
      vertex -13.8839 24.3839 11
    endloop
  endfacet
  facet normal 0.923888 -0.382663 0
    outer loop
      vertex -13.8839 24.3839 3
      vertex -14.25 23.5 11
      vertex -14.25 23.5 3
    endloop
  endfacet
  facet normal -0.382663 0.923888 0
    outer loop
      vertex -12.1161 22.6161 3
      vertex -13 22.25 11
      vertex -12.1161 22.6161 11
    endloop
  endfacet
  facet normal -0.382663 0.923888 0
    outer loop
      vertex -13 22.25 11
      vertex -12.1161 22.6161 3
      vertex -13 22.25 3
    endloop
  endfacet
  facet normal -0.923875 -0.382694 0
    outer loop
      vertex -14.4142 -24.9142 3
      vertex -15 -23.5 11
      vertex -15 -23.5 3
    endloop
  endfacet
  facet normal -0.923875 -0.382694 0
    outer loop
      vertex -15 -23.5 11
      vertex -14.4142 -24.9142 3
      vertex -14.4142 -24.9142 11
    endloop
  endfacet
  facet normal 0.382694 0.923875 -0
    outer loop
      vertex -11.5858 -22.0858 3
      vertex -13 -21.5 11
      vertex -11.5858 -22.0858 11
    endloop
  endfacet
  facet normal 0.382694 0.923875 0
    outer loop
      vertex -13 -21.5 11
      vertex -11.5858 -22.0858 3
      vertex -13 -21.5 3
    endloop
  endfacet
  facet normal 0.923875 0.382694 0
    outer loop
      vertex -11 -23.5 11
      vertex -11.5858 -22.0858 3
      vertex -11.5858 -22.0858 11
    endloop
  endfacet
  facet normal 0.923875 0.382694 0
    outer loop
      vertex -11.5858 -22.0858 3
      vertex -11 -23.5 11
      vertex -11 -23.5 3
    endloop
  endfacet
  facet normal 0.923875 -0.382694 0
    outer loop
      vertex -11.5858 -24.9142 11
      vertex -11 -23.5 3
      vertex -11 -23.5 11
    endloop
  endfacet
  facet normal 0.923875 -0.382694 0
    outer loop
      vertex -11 -23.5 3
      vertex -11.5858 -24.9142 11
      vertex -11.5858 -24.9142 3
    endloop
  endfacet
  facet normal -0.382694 -0.923875 0
    outer loop
      vertex -14.4142 -24.9142 3
      vertex -13 -25.5 11
      vertex -14.4142 -24.9142 11
    endloop
  endfacet
  facet normal -0.382694 -0.923875 -0
    outer loop
      vertex -13 -25.5 11
      vertex -14.4142 -24.9142 3
      vertex -13 -25.5 3
    endloop
  endfacet
  facet normal -0.923875 0.382694 0
    outer loop
      vertex -15 -23.5 3
      vertex -14.4142 -22.0858 11
      vertex -14.4142 -22.0858 3
    endloop
  endfacet
  facet normal -0.923875 0.382694 0
    outer loop
      vertex -14.4142 -22.0858 11
      vertex -15 -23.5 3
      vertex -15 -23.5 11
    endloop
  endfacet
  facet normal 0.382694 -0.923875 0
    outer loop
      vertex -13 -25.5 3
      vertex -11.5858 -24.9142 11
      vertex -13 -25.5 11
    endloop
  endfacet
  facet normal 0.382694 -0.923875 0
    outer loop
      vertex -11.5858 -24.9142 11
      vertex -13 -25.5 3
      vertex -11.5858 -24.9142 3
    endloop
  endfacet
  facet normal 0 0 1
    outer loop
      vertex -11.75 -23.5 11
      vertex -11 -23.5 11
      vertex -11.5858 -22.0858 11
    endloop
  endfacet
  facet normal 0 0 1
    outer loop
      vertex -11 -23.5 11
      vertex -11.75 -23.5 11
      vertex -11.5858 -24.9142 11
    endloop
  endfacet
  facet normal 0 0 1
    outer loop
      vertex -11.5858 -22.0858 11
      vertex -12.1161 -22.6161 11
      vertex -11.75 -23.5 11
    endloop
  endfacet
  facet normal 0 0 1
    outer loop
      vertex -13 -21.5 11
      vertex -12.1161 -22.6161 11
      vertex -11.5858 -22.0858 11
    endloop
  endfacet
  facet normal 0 0 1
    outer loop
      vertex -13 -21.5 11
      vertex -13 -22.25 11
      vertex -12.1161 -22.6161 11
    endloop
  endfacet
  facet normal 0 0 1
    outer loop
      vertex -13 -21.5 11
      vertex -13.8839 -22.6161 11
      vertex -13 -22.25 11
    endloop
  endfacet
  facet normal 0 0 1
    outer loop
      vertex -13.8839 -22.6161 11
      vertex -14.4142 -22.0858 11
      vertex -14.25 -23.5 11
    endloop
  endfacet
  facet normal -0 0 1
    outer loop
      vertex -14.4142 -22.0858 11
      vertex -13.8839 -22.6161 11
      vertex -13 -21.5 11
    endloop
  endfacet
  facet normal -0 0 1
    outer loop
      vertex -12.1161 -24.3839 11
      vertex -11.5858 -24.9142 11
      vertex -11.75 -23.5 11
    endloop
  endfacet
  facet normal -0 0 1
    outer loop
      vertex -13 -24.75 11
      vertex -11.5858 -24.9142 11
      vertex -12.1161 -24.3839 11
    endloop
  endfacet
  facet normal 0 0 1
    outer loop
      vertex -13 -24.75 11
      vertex -13 -25.5 11
      vertex -11.5858 -24.9142 11
    endloop
  endfacet
  facet normal 0 0 1
    outer loop
      vertex -13.8839 -24.3839 11
      vertex -13 -25.5 11
      vertex -13 -24.75 11
    endloop
  endfacet
  facet normal 0 0 1
    outer loop
      vertex -13.8839 -24.3839 11
      vertex -14.4142 -24.9142 11
      vertex -13 -25.5 11
    endloop
  endfacet
  facet normal 0 0 1
    outer loop
      vertex -14.25 -23.5 11
      vertex -14.4142 -24.9142 11
      vertex -13.8839 -24.3839 11
    endloop
  endfacet
  facet normal 0 0 1
    outer loop
      vertex -15 -23.5 11
      vertex -14.25 -23.5 11
      vertex -14.4142 -22.0858 11
    endloop
  endfacet
  facet normal 0 0 1
    outer loop
      vertex -14.25 -23.5 11
      vertex -15 -23.5 11
      vertex -14.4142 -24.9142 11
    endloop
  endfacet
  facet normal -0.382694 0.923875 0
    outer loop
      vertex -13 -21.5 3
      vertex -14.4142 -22.0858 11
      vertex -13 -21.5 11
    endloop
  endfacet
  facet normal -0.382694 0.923875 0
    outer loop
      vertex -14.4142 -22.0858 11
      vertex -13 -21.5 3
      vertex -14.4142 -22.0858 3
    endloop
  endfacet
  facet normal 0.923888 0.382663 0
    outer loop
      vertex -13.8839 -24.3839 11
      vertex -14.25 -23.5 3
      vertex -14.25 -23.5 11
    endloop
  endfacet
  facet normal 0.923888 0.382663 0
    outer loop
      vertex -14.25 -23.5 3
      vertex -13.8839 -24.3839 11
      vertex -13.8839 -24.3839 3
    endloop
  endfacet
  facet normal -0.382663 -0.923888 0
    outer loop
      vertex -13 -22.25 3
      vertex -12.1161 -22.6161 11
      vertex -13 -22.25 11
    endloop
  endfacet
  facet normal -0.382663 -0.923888 -0
    outer loop
      vertex -12.1161 -22.6161 11
      vertex -13 -22.25 3
      vertex -12.1161 -22.6161 3
    endloop
  endfacet
  facet normal -0.923888 -0.382663 0
    outer loop
      vertex -11.75 -23.5 3
      vertex -12.1161 -22.6161 11
      vertex -12.1161 -22.6161 3
    endloop
  endfacet
  facet normal -0.923888 -0.382663 0
    outer loop
      vertex -12.1161 -22.6161 11
      vertex -11.75 -23.5 3
      vertex -11.75 -23.5 11
    endloop
  endfacet
  facet normal -0.923888 0.382663 0
    outer loop
      vertex -12.1161 -24.3839 3
      vertex -11.75 -23.5 11
      vertex -11.75 -23.5 3
    endloop
  endfacet
  facet normal -0.923888 0.382663 0
    outer loop
      vertex -11.75 -23.5 11
      vertex -12.1161 -24.3839 3
      vertex -12.1161 -24.3839 11
    endloop
  endfacet
  facet normal 0.382663 0.923888 -0
    outer loop
      vertex -13 -24.75 3
      vertex -13.8839 -24.3839 11
      vertex -13 -24.75 11
    endloop
  endfacet
  facet normal 0.382663 0.923888 0
    outer loop
      vertex -13.8839 -24.3839 11
      vertex -13 -24.75 3
      vertex -13.8839 -24.3839 3
    endloop
  endfacet
  facet normal 0.382663 -0.923888 0
    outer loop
      vertex -13.8839 -22.6161 3
      vertex -13 -22.25 11
      vertex -13.8839 -22.6161 11
    endloop
  endfacet
  facet normal 0.382663 -0.923888 0
    outer loop
      vertex -13 -22.25 11
      vertex -13.8839 -22.6161 3
      vertex -13 -22.25 3
    endloop
  endfacet
  facet normal 0.923888 -0.382663 0
    outer loop
      vertex -14.25 -23.5 11
      vertex -13.8839 -22.6161 3
      vertex -13.8839 -22.6161 11
    endloop
  endfacet
  facet normal 0.923888 -0.382663 0
    outer loop
      vertex -13.8839 -22.6161 3
      vertex -14.25 -23.5 11
      vertex -14.25 -23.5 3
    endloop
  endfacet
  facet normal -0.382663 0.923888 0
    outer loop
      vertex -12.1161 -24.3839 3
      vertex -13 -24.75 11
      vertex -12.1161 -24.3839 11
    endloop
  endfacet
  facet normal -0.382663 0.923888 0
    outer loop
      vertex -13 -24.75 11
      vertex -12.1161 -24.3839 3
      vertex -13 -24.75 3
    endloop
  endfacet
endsolid OpenSCAD_Model
